<svg width="24" height="24" viewBox="0 0 24 24" fill="none" xmlns="http://www.w3.org/2000/svg">
<rect width="24" height="24" rx="12" fill="#4DCAFB"/>
<path fill-rule="evenodd" clip-rule="evenodd" d="M5.85584 17.9407C5.97574 18.0021 6.1081 18.0352 6.24276 18.0374C6.43901 18.0341 6.62896 17.9676 6.78445 17.8479L8.88157 16.2266H13.6368C14.9709 16.2266 16.2503 15.6967 17.1936 14.7534C18.1369 13.8101 18.6668 12.5307 18.6668 11.1967C18.6668 9.86262 18.1369 8.58323 17.1936 7.63992C16.2503 6.69662 14.9709 6.16667 13.6368 6.16667H10.3635C9.02945 6.16667 7.75005 6.69662 6.80675 7.63992C5.86344 8.58323 5.3335 9.86262 5.3335 11.1967V17.1282C5.33358 17.2994 5.38285 17.467 5.47545 17.6111C5.56805 17.7551 5.70008 17.8695 5.85584 17.9407ZM9.46583 10.535H14.55C14.6783 10.535 14.8013 10.4841 14.892 10.3934C14.9827 10.3027 15.0336 10.1797 15.0336 10.0514C15.0336 9.92311 14.9827 9.80009 14.892 9.70939C14.8013 9.61869 14.6783 9.56773 14.55 9.56773H9.46583C9.33756 9.56773 9.21454 9.61869 9.12384 9.70939C9.03313 9.80009 8.98218 9.92311 8.98218 10.0514C8.98218 10.1797 9.03313 10.3027 9.12384 10.3934C9.21454 10.4841 9.33756 10.535 9.46583 10.535ZM9.46583 12.903H12.2517C12.3799 12.903 12.503 12.852 12.5937 12.7613C12.6844 12.6706 12.7353 12.5476 12.7353 12.4193C12.7353 12.2911 12.6844 12.1681 12.5937 12.0774C12.503 11.9866 12.3799 11.9357 12.2517 11.9357H9.46583C9.33756 11.9357 9.21454 11.9866 9.12384 12.0774C9.03313 12.1681 8.98218 12.2911 8.98218 12.4193C8.98218 12.5476 9.03313 12.6706 9.12384 12.7613C9.21454 12.852 9.33756 12.903 9.46583 12.903Z" fill="white"/>
</svg>
