<?xml version="1.0" encoding="UTF-8"?> <svg xmlns="http://www.w3.org/2000/svg" width="28" height="29" viewBox="0 0 28 29" fill="none"><g id="arrow-right"><path id="arrow-right_2" d="M25.3224 15.3262L17.1569 23.4917C16.9294 23.7192 16.6307 23.8335 16.332 23.8335C16.0334 23.8335 15.7347 23.7192 15.5072 23.4917C15.051 23.0355 15.051 22.2981 15.5072 21.842L21.6823 15.6668H3.4987C2.85353 15.6668 2.33203 15.1442 2.33203 14.5002C2.33203 13.8562 2.85353 13.3335 3.4987 13.3335H21.6823L15.5072 7.15837C15.051 6.7022 15.051 5.9648 15.5072 5.50863C15.9633 5.05246 16.7007 5.05246 17.1569 5.50863L25.3224 13.6742C25.4309 13.7827 25.5161 13.9109 25.5756 14.0544C25.6935 14.3391 25.6935 14.6613 25.5756 14.9459C25.5161 15.0894 25.4309 15.2177 25.3224 15.3262Z" fill="white"></path></g></svg> 