<?xml version="1.0" encoding="UTF-8"?> <svg xmlns="http://www.w3.org/2000/svg" width="28" height="29" viewBox="0 0 28 29" fill="none"><g id="arrow-left"><path id="arrow-left_2" d="M25.6679 14.5002C25.6679 15.1442 25.1464 15.6668 24.5013 15.6668H6.31766L12.4928 21.842C12.949 22.2981 12.949 23.0355 12.4928 23.4917C12.2653 23.7192 11.9666 23.8335 11.6679 23.8335C11.3693 23.8335 11.0706 23.7192 10.8431 23.4917L2.67753 15.3262C2.56903 15.2177 2.48381 15.0894 2.42431 14.9459C2.30648 14.6613 2.30648 14.3391 2.42431 14.0544C2.48381 13.9109 2.56903 13.7827 2.67753 13.6742L10.8431 5.50863C11.2992 5.05246 12.0366 5.05246 12.4928 5.50863C12.949 5.9648 12.949 6.7022 12.4928 7.15837L6.31766 13.3335H24.5013C25.1464 13.3335 25.6679 13.8562 25.6679 14.5002Z" fill="white"></path></g></svg> 