<?xml version="1.0" encoding="UTF-8"?> <svg xmlns="http://www.w3.org/2000/svg" width="169" height="51" fill="none"><path fill="black" d="M162.75 50.4H6.5C3 50.4.25 47.65.25 44.15V6.65C.25 3.15 3 .4 6.5.4h156.25c3.5 0 6.25 2.75 6.25 6.25v37.5c0 3.5-2.75 6.25-6.25 6.25Z"></path><path fill="white" fill-opacity=".5" d="M162.75 1.4c2.875 0 5.25 2.375 5.25 5.25v37.5c0 2.875-2.375 5.25-5.25 5.25H6.5c-2.875 0-5.25-2.375-5.25-5.25V6.65c0-2.875 2.375-5.25 5.25-5.25h156.25Zm0-1H6.5C3 .4.25 3.275.25 6.65v37.5c0 3.5 2.75 6.25 6.25 6.25h156.25c3.5 0 6.25-2.75 6.25-6.25V6.65c0-3.375-2.75-6.25-6.25-6.25Z"></path><path fill="white" stroke="white" stroke-miterlimit="10" stroke-width=".25" d="M59.5 13.15c0 1-.25 1.875-.875 2.5-.75.75-1.625 1.125-2.75 1.125s-2-.375-2.75-1.125S52 14.025 52 12.9s.375-2 1.125-2.75 1.625-1.125 2.75-1.125c.5 0 1 .125 1.5.375s.875.5 1.125.875l-.625.625c-.5-.625-1.125-.875-2-.875-.75 0-1.5.25-2 .875-.625.5-.875 1.25-.875 2.125s.25 1.625.875 2.125 1.25.875 2 .875c.875 0 1.5-.25 2.125-.875a2.07 2.07 0 0 0 .625-1.5h-2.75v-1H59.5v.5Zm5.75-3.125h-3.375V12.4H65v.875h-3.125v2.375h3.375v1h-4.375v-7.5h4.375v.875Zm4.125 6.625h-1v-6.625H66.25V9.15h5.25v.875h-2.125v6.625Zm5.75 0v-7.5h1v7.5h-1Zm5.25 0h-1v-6.625H77.25V9.15h5.125v.875H80.25v6.625h.125Zm11.875-1c-.75.75-1.625 1.125-2.75 1.125s-2-.375-2.75-1.125-1.125-1.625-1.125-2.75.375-2 1.125-2.75 1.625-1.125 2.75-1.125 2 .375 2.75 1.125 1.125 1.625 1.125 2.75-.375 2-1.125 2.75Zm-4.75-.625c.5.5 1.25.875 2 .875s1.5-.25 2-.875c.5-.5.875-1.25.875-2.125s-.25-1.625-.875-2.125c-.5-.5-1.25-.875-2-.875s-1.5.25-2 .875c-.5.5-.875 1.25-.875 2.125s.25 1.625.875 2.125Zm7.25 1.625v-7.5h1.125l3.625 5.875V9.15h1v7.5h-1l-3.875-6.125v6.125h-.875Z"></path><path fill="white" d="M85.375 27.65c-3 0-5.375 2.25-5.375 5.375 0 3 2.375 5.375 5.375 5.375s5.375-2.25 5.375-5.375c0-3.25-2.375-5.375-5.375-5.375Zm0 8.5c-1.625 0-3-1.375-3-3.25s1.375-3.25 3-3.25 3 1.25 3 3.25c0 1.875-1.375 3.25-3 3.25Zm-11.625-8.5c-3 0-5.375 2.25-5.375 5.375 0 3 2.375 5.375 5.375 5.375s5.375-2.25 5.375-5.375c0-3.25-2.375-5.375-5.375-5.375Zm0 8.5c-1.625 0-3-1.375-3-3.25s1.375-3.25 3-3.25 3 1.25 3 3.25c0 1.875-1.375 3.25-3 3.25Zm-13.875-6.875v2.25h5.375c-.125 1.25-.625 2.25-1.25 2.875-.75.75-2 1.625-4.125 1.625-3.375 0-5.875-2.625-5.875-6s2.625-6 5.875-6c1.75 0 3.125.75 4.125 1.625l1.625-1.625c-1.375-1.25-3.125-2.25-5.625-2.25-4.5 0-8.375 3.75-8.375 8.25s3.875 8.25 8.375 8.25c2.5 0 4.25-.75 5.75-2.375 1.5-1.5 2-3.625 2-5.25 0-.5 0-1-.125-1.375h-7.75Zm56.75 1.75c-.5-1.25-1.75-3.375-4.5-3.375s-5 2.125-5 5.375c0 3 2.25 5.375 5.25 5.375 2.375 0 3.875-1.5 4.375-2.375l-1.75-1.25c-.625.875-1.375 1.5-2.625 1.5s-2-.5-2.625-1.625l7.125-3-.25-.625Zm-7.25 1.75c0-2 1.625-3.125 2.75-3.125.875 0 1.75.5 2 1.125l-4.75 2ZM103.5 37.9h2.375V22.275H103.5V37.9Zm-3.75-9.125c-.625-.625-1.625-1.25-2.875-1.25-2.625 0-5.125 2.375-5.125 5.375s2.375 5.25 5.125 5.25c1.25 0 2.25-.625 2.75-1.25h.125v.75c0 2-1.125 3.125-2.875 3.125-1.375 0-2.375-1-2.625-1.875l-2 .875C92.875 41.15 94.375 42.9 97 42.9c2.75 0 5-1.625 5-5.5v-9.5h-2.25v.875ZM97 36.15c-1.625 0-3-1.375-3-3.25s1.375-3.25 3-3.25 2.875 1.375 2.875 3.25-1.25 3.25-2.875 3.25Zm30.5-13.875h-5.625V37.9h2.375v-5.875h3.25c2.625 0 5.125-1.875 5.125-4.875s-2.5-4.875-5.125-4.875Zm.125 7.5h-3.375V24.4h3.375c1.75 0 2.75 1.5 2.75 2.625-.125 1.375-1.125 2.75-2.75 2.75ZM142 27.525c-1.75 0-3.5.75-4.125 2.375l2.125.875c.5-.875 1.25-1.125 2.125-1.125 1.25 0 2.375.75 2.5 2v.125c-.375-.25-1.375-.625-2.375-.625-2.25 0-4.5 1.25-4.5 3.5 0 2.125 1.875 3.5 3.875 3.5 1.625 0 2.375-.75 3-1.5h.125v1.25H147v-6c-.25-2.75-2.375-4.375-5-4.375Zm-.25 8.625c-.75 0-1.875-.375-1.875-1.375 0-1.25 1.375-1.625 2.5-1.625 1 0 1.5.25 2.125.5-.25 1.5-1.5 2.5-2.75 2.5Zm13.125-8.25-2.625 6.75h-.125l-2.75-6.75h-2.5L151 37.4l-2.375 5.25H151l6.375-14.75h-2.5Zm-21 10h2.375V22.275h-2.375V37.9Z"></path><path fill="url(#a)" d="M13.25 9.775c-.375.375-.5 1-.5 1.75V39.15c0 .75.25 1.375.625 1.75l.125.125 15.5-15.5v-.25l-15.75-15.5Z"></path><path fill="url(#b)" d="m34 30.775-5.125-5.125v-.375L34 20.15l.125.125 6.125 3.5c1.75 1 1.75 2.625 0 3.625L34 30.775Z"></path><path fill="url(#c)" d="m34.125 30.65-5.25-5.25L13.25 41.025c.625.625 1.5.625 2.625.125l18.25-10.5Z"></path><path fill="url(#d)" d="M34.125 20.15 15.875 9.775c-1.125-.625-2-.5-2.625.125l15.625 15.5 5.25-5.25Z"></path><path fill="black" d="m34 30.525-18.125 10.25c-1 .625-1.875.5-2.5 0l-.125.125.125.125c.625.5 1.5.625 2.5 0L34 30.525Z" opacity=".2"></path><path fill="black" d="M13.25 40.775c-.375-.375-.5-1-.5-1.75v.125c0 .75.25 1.375.625 1.75v-.125h-.125Zm27-13.75-6.25 3.5.125.125 6.125-3.5c.875-.5 1.25-1.125 1.25-1.75 0 .625-.5 1.125-1.25 1.625Z" opacity=".12"></path><path fill="white" d="M15.875 9.9 40.25 23.775c.75.5 1.25 1 1.25 1.625 0-.625-.375-1.25-1.25-1.75L15.875 9.775c-1.75-1-3.125-.25-3.125 1.75v.125c0-1.875 1.375-2.75 3.125-1.75Z" opacity=".25"></path><defs><linearGradient id="a" x1="27.5" x2="6.521" y1="11.288" y2="32.265" gradientUnits="userSpaceOnUse"><stop stop-color="#00A0FF"></stop><stop offset=".007" stop-color="#00A1FF"></stop><stop offset=".26" stop-color="#00BEFF"></stop><stop offset=".512" stop-color="#00D2FF"></stop><stop offset=".76" stop-color="#00DFFF"></stop><stop offset="1" stop-color="#00E3FF"></stop></linearGradient><linearGradient id="b" x1="42.542" x2="12.296" y1="25.401" y2="25.401" gradientUnits="userSpaceOnUse"><stop stop-color="#FFE000"></stop><stop offset=".409" stop-color="#FFBD00"></stop><stop offset=".775" stop-color="#FFA500"></stop><stop offset="1" stop-color="#FF9C00"></stop></linearGradient><linearGradient id="c" x1="31.284" x2="2.836" y1="28.27" y2="56.718" gradientUnits="userSpaceOnUse"><stop stop-color="#FF3A44"></stop><stop offset="1" stop-color="#C31162"></stop></linearGradient><linearGradient id="d" x1="9.371" x2="22.075" y1=".62" y2="13.324" gradientUnits="userSpaceOnUse"><stop stop-color="#32A071"></stop><stop offset=".069" stop-color="#2DA771"></stop><stop offset=".476" stop-color="#15CF74"></stop><stop offset=".801" stop-color="#06E775"></stop><stop offset="1" stop-color="#00F076"></stop></linearGradient></defs></svg> 