<?xml version="1.0" encoding="UTF-8"?> <svg xmlns="http://www.w3.org/2000/svg" width="169" height="51" fill="none"><path fill="white" d="M167.881 44.897a4.79 4.79 0 0 1-4.796 4.79H6.165a4.797 4.797 0 0 1-4.802-4.79V6.708a4.8 4.8 0 0 1 4.802-4.795h156.919a4.79 4.79 0 0 1 3.391 1.405 4.786 4.786 0 0 1 1.404 3.39l.002 38.19Z"></path><path fill="white" fill-opacity=".5" d="M163.085 50.8H6.165A5.916 5.916 0 0 1 .25 44.897V6.71A5.917 5.917 0 0 1 6.164.8h156.92a5.925 5.925 0 0 1 5.915 5.91v38.187c.002 3.256-2.656 5.903-5.914 5.903Z"></path><path fill="black" d="M167.881 44.897a4.79 4.79 0 0 1-4.796 4.79H6.165a4.797 4.797 0 0 1-4.802-4.79V6.708a4.8 4.8 0 0 1 4.802-4.795h156.919a4.79 4.79 0 0 1 3.391 1.405 4.786 4.786 0 0 1 1.404 3.39l.002 38.19Z"></path><path fill="white" d="M37.93 25.537c-.036-4.03 3.3-5.99 3.453-6.082-1.89-2.754-4.818-3.13-5.848-3.16-2.46-.26-4.846 1.471-6.1 1.471-1.277 0-3.207-1.447-5.287-1.404-2.677.041-5.18 1.59-6.554 3.996-2.834 4.905-.72 12.113 1.995 16.078 1.358 1.943 2.946 4.11 5.023 4.034 2.032-.083 2.791-1.294 5.244-1.294 2.43 0 3.143 1.294 5.262 1.245 2.18-.034 3.554-1.95 4.865-3.91 1.57-2.224 2.2-4.417 2.225-4.53-.05-.017-4.235-1.615-4.278-6.444Zm-4.002-11.85c1.093-1.367 1.841-3.227 1.634-5.114-1.582.07-3.561 1.095-4.7 2.431-1.008 1.178-1.909 3.109-1.676 4.924 1.777.133 3.602-.897 4.742-2.242Z"></path><path fill="url(#a)" d="M163.085.8H79.034l32.921 50h51.13A5.922 5.922 0 0 0 169 44.893V6.71A5.92 5.92 0 0 0 163.085.8Z"></path><path fill="white" d="M67.368 40.19h-2.84l-1.557-4.887h-5.407l-1.483 4.888h-2.765l5.36-16.64h3.309l5.383 16.64Zm-4.866-6.937-1.407-4.345c-.148-.444-.429-1.49-.839-3.135h-.05c-.165.708-.429 1.753-.79 3.135l-1.383 4.345h4.47Zm18.62.791c0 2.04-.554 3.654-1.663 4.838-.993 1.054-2.227 1.58-3.7 1.58-1.59 0-2.732-.566-3.426-1.702v6.296h-2.667v-12.92c0-1.282-.034-2.596-.099-3.944h2.345l.15 1.902h.05c.889-1.433 2.238-2.149 4.049-2.149 1.416 0 2.598.559 3.543 1.678.944 1.121 1.418 2.594 1.418 4.421Zm-2.716.098c0-1.168-.263-2.13-.79-2.89-.577-.789-1.351-1.184-2.322-1.184-.658 0-1.255.22-1.79.654-.535.438-.885 1.009-1.049 1.717a3.481 3.481 0 0 0-.124.811v2.002c0 .871.268 1.608.803 2.21.536.6 1.231.902 2.087.902 1.004 0 1.785-.389 2.344-1.16.56-.774.841-1.794.841-3.062Zm16.52-.098c0 2.04-.554 3.654-1.663 4.838-.995 1.054-2.228 1.58-3.701 1.58-1.59 0-2.733-.566-3.427-1.702v6.296H83.47v-12.92a81.92 81.92 0 0 0-.1-3.944h2.346l.149 1.902h.05c.888-1.433 2.237-2.149 4.05-2.149 1.414 0 2.596.559 3.544 1.678.943 1.121 1.418 2.594 1.418 4.421Zm-2.718.098c0-1.168-.263-2.13-.791-2.89-.577-.789-1.349-1.184-2.319-1.184-.658 0-1.256.22-1.792.654-.535.438-.885 1.009-1.048 1.717-.082.33-.125.599-.125.811v2.002c0 .871.269 1.608.801 2.21.536.6 1.231.902 2.089.902 1.005 0 1.787-.389 2.345-1.16.56-.774.84-1.794.84-3.062Zm18.151 1.381c0 1.417-.495 2.569-1.479 3.457-1.083.97-2.595 1.457-4.534 1.457-1.791 0-3.227-.345-4.31-1.036l.617-2.222c1.169.692 2.454 1.038 3.852 1.038 1.006 0 1.787-.228 2.345-.68.559-.452.842-1.057.842-1.812 0-.677-.234-1.243-.693-1.705-.462-.46-1.225-.889-2.296-1.283-2.914-1.086-4.373-2.675-4.373-4.766 0-1.365.516-2.483 1.544-3.357 1.028-.873 2.391-1.31 4.087-1.31 1.514 0 2.776.265 3.778.791l-.669 2.173c-.943-.51-2.007-.765-3.198-.765-.94 0-1.678.231-2.206.692-.444.41-.669.912-.669 1.507 0 .657.256 1.202.766 1.63.443.393 1.251.822 2.419 1.282 1.433.578 2.487 1.25 3.161 2.024.679.772 1.016 1.736 1.016 2.885Zm8.839-5.33h-2.939v5.825c0 1.482.518 2.221 1.556 2.221.476 0 .871-.04 1.184-.124l.074 2.025c-.525.196-1.217.295-2.074.295-1.053 0-1.876-.322-2.47-.964-.591-.643-.889-1.72-.889-3.235v-6.048h-1.751v-2h1.751V25.99l2.619-.79v2.986h2.939v2.006Zm13.235 3.9c0 1.844-.528 3.358-1.581 4.542-1.102 1.22-2.568 1.827-4.395 1.827-1.764 0-3.166-.584-4.211-1.75-1.046-1.17-1.568-2.642-1.568-4.419 0-1.86.54-3.382 1.617-4.566 1.079-1.186 2.532-1.778 4.359-1.778 1.761 0 3.176.585 4.247 1.753 1.023 1.132 1.532 2.595 1.532 4.39Zm-2.764.061c0-1.099-.238-2.042-.715-2.83-.559-.953-1.359-1.43-2.396-1.43-1.068 0-1.887.477-2.445 1.43-.478.788-.715 1.747-.715 2.88 0 1.1.237 2.046.715 2.832.577.953 1.381 1.43 2.423 1.43 1.019 0 1.818-.487 2.396-1.453.49-.808.737-1.757.737-2.859Zm11.435-3.617a4.654 4.654 0 0 0-.841-.074c-.938 0-1.663.353-2.174 1.063-.442.625-.665 1.415-.665 2.37v6.295h-2.666v-8.22a84.953 84.953 0 0 0-.078-3.777h2.323l.097 2.295h.074c.283-.789.725-1.425 1.333-1.901a3.227 3.227 0 0 1 1.927-.643c.247 0 .469.017.667.049l.003 2.543Zm11.925 3.087c.006.405-.026.81-.098 1.21h-7.999c.03 1.184.418 2.092 1.16 2.717.675.558 1.546.838 2.617.838 1.184 0 2.265-.188 3.237-.566l.417 1.849c-1.135.495-2.476.741-4.023.741-1.861 0-3.322-.547-4.385-1.64-1.06-1.094-1.592-2.565-1.592-4.406 0-1.808.494-3.315 1.483-4.516 1.036-1.283 2.435-1.925 4.196-1.925 1.73 0 3.039.642 3.929 1.925.704 1.016 1.058 2.276 1.058 3.773Zm-2.543-.691c.019-.792-.156-1.473-.518-2.05-.461-.742-1.172-1.113-2.123-1.113-.872 0-1.582.362-2.123 1.087-.444.576-.708 1.27-.789 2.073l5.553.003ZM56.794 17.669c-.741 0-1.383-.037-1.917-.098V9.526a14.519 14.519 0 0 1 2.257-.17c3.058 0 4.467 1.504 4.467 3.956 0 2.829-1.664 4.357-4.807 4.357Zm.448-7.281c-.413 0-.764.025-1.056.085v6.115c.158.025.46.037.886.037 2.003 0 3.144-1.14 3.144-3.276 0-1.905-1.032-2.961-2.974-2.961Zm8.747 7.342c-1.723 0-2.84-1.287-2.84-3.034 0-1.82 1.14-3.118 2.938-3.118 1.698 0 2.84 1.225 2.84 3.022 0 1.843-1.177 3.13-2.938 3.13Zm.05-5.194c-.947 0-1.553.885-1.553 2.123 0 1.214.619 2.1 1.54 2.1.922 0 1.542-.947 1.542-2.125 0-1.2-.607-2.098-1.529-2.098Zm12.716-.837-1.845 5.897h-1.202l-.764-2.56a19.414 19.414 0 0 1-.474-1.905h-.025c-.096.643-.279 1.287-.473 1.904l-.813 2.561h-1.214l-1.736-5.897h1.347l.668 2.804c.157.667.29 1.297.4 1.893h.025c.096-.497.254-1.117.485-1.88l.838-2.815h1.068l.802 2.754c.194.668.352 1.323.474 1.942h.035c.085-.606.219-1.25.4-1.942l.717-2.754 1.287-.002Zm6.791 5.897h-1.31V14.21c0-1.043-.4-1.565-1.19-1.565-.777 0-1.31.667-1.31 1.444v3.507h-1.312v-4.211c0-.521-.012-1.08-.048-1.687h1.153l.061.91h.036c.353-.63 1.069-1.03 1.87-1.03 1.238 0 2.051.947 2.051 2.487l-.001 3.531Zm3.614 0H87.85V8.994h1.311v8.602Zm4.78.134c-1.723 0-2.841-1.287-2.841-3.034 0-1.82 1.14-3.118 2.937-3.118 1.7 0 2.84 1.225 2.84 3.022.001 1.843-1.177 3.13-2.937 3.13Zm.048-5.194c-.947 0-1.553.885-1.553 2.123 0 1.214.62 2.1 1.54 2.1.922 0 1.54-.947 1.54-2.125.001-1.2-.604-2.098-1.527-2.098Zm8.056 5.06-.095-.679h-.035c-.401.546-.985.813-1.725.813-1.057 0-1.807-.74-1.807-1.736 0-1.455 1.262-2.208 3.447-2.208v-.109c0-.776-.412-1.165-1.225-1.165-.581 0-1.092.146-1.54.438l-.267-.862c.545-.34 1.226-.51 2.025-.51 1.541 0 2.318.813 2.318 2.44v2.171c0 .596.027 1.057.086 1.408l-1.182-.001Zm-.18-2.937c-1.456 0-2.187.353-2.187 1.189 0 .619.377.921.9.921.666 0 1.287-.508 1.287-1.2v-.91Zm7.641 2.937-.061-.947h-.036c-.377.716-1.01 1.08-1.894 1.08-1.422 0-2.475-1.25-2.475-3.009 0-1.844 1.092-3.143 2.583-3.143.789 0 1.348.266 1.663.801h.026V8.994h1.312v7.013c0 .57.014 1.104.049 1.589h-1.167Zm-.194-3.47c0-.825-.546-1.529-1.38-1.529-.972 0-1.566.862-1.566 2.075 0 1.188.616 2.002 1.539 2.002.825 0 1.407-.716 1.407-1.565v-.983Zm9.631 3.604c-1.723 0-2.84-1.287-2.84-3.034 0-1.82 1.141-3.118 2.937-3.118 1.7 0 2.84 1.225 2.84 3.022.002 1.843-1.175 3.13-2.937 3.13Zm.048-5.194c-.945 0-1.552.885-1.552 2.123 0 1.214.619 2.1 1.54 2.1.923 0 1.541-.947 1.541-2.125.002-1.2-.604-2.098-1.529-2.098Zm9.938 5.06h-1.312V14.21c0-1.043-.4-1.565-1.189-1.565-.777 0-1.31.667-1.31 1.444v3.507h-1.312v-4.211c0-.521-.012-1.08-.048-1.687h1.153l.061.91h.036c.352-.63 1.068-1.031 1.869-1.031 1.238 0 2.052.946 2.052 2.487v3.532Zm8.819-4.914h-1.442v2.864c0 .728.252 1.092.763 1.092.231 0 .425-.025.581-.061l.036.995c-.253.098-.594.147-1.016.147-1.033 0-1.651-.57-1.651-2.064v-2.973h-.861V11.7h.861v-1.08l1.287-.389v1.468h1.442v.984Zm6.938 4.914h-1.309v-3.36c0-1.056-.399-1.59-1.189-1.59-.68 0-1.312.461-1.312 1.395v3.555h-1.31V8.994h1.31v3.542h.026c.413-.643 1.01-.96 1.773-.96 1.249 0 2.011.971 2.011 2.513v3.507Zm7.109-2.633h-3.933c.025 1.116.764 1.746 1.858 1.746.582 0 1.117-.097 1.59-.278l.204.91c-.558.242-1.215.364-1.979.364-1.844 0-2.936-1.165-2.936-2.972 0-1.808 1.118-3.167 2.789-3.167 1.507 0 2.452 1.116 2.452 2.803.009.199-.006.398-.045.594Zm-1.202-.934c0-.91-.459-1.553-1.297-1.553-.753 0-1.348.655-1.433 1.553h2.73Z"></path><defs><linearGradient id="a" x1="124.015" x2="124.015" y1="50.933" y2="-129.391" gradientUnits="userSpaceOnUse"><stop stop-color="#1A1A1A" stop-opacity=".1"></stop><stop offset=".123" stop-color="#212121" stop-opacity=".151"></stop><stop offset=".308" stop-color="#353535" stop-opacity=".227"></stop><stop offset=".532" stop-color="#575757" stop-opacity=".318"></stop><stop offset=".783" stop-color="#858585" stop-opacity=".421"></stop><stop offset="1" stop-color="#B3B3B3" stop-opacity=".51"></stop></linearGradient></defs></svg> 