<?xml version="1.0" encoding="UTF-8"?> <svg xmlns="http://www.w3.org/2000/svg" width="175" height="48" viewBox="0 0 175 48" fill="none"><path d="M29.2493 40.7218L29.3838 41.0038L29.3883 41.0017C29.2614 41.2606 28.6099 42.5588 27.8279 43.5654C27.455 44.0454 27.053 44.4584 26.6641 44.661L26.5824 44.7203C26.5824 44.7203 26.5768 44.7239 26.5653 44.7296C26.5653 44.7296 25.5344 45.1942 24.5907 44.7296C24.5792 44.7239 24.5736 44.7203 24.5736 44.7203L24.4919 44.661C24.103 44.4584 23.7008 44.0449 23.3281 43.5654C22.5466 42.5588 21.8946 41.2606 21.7676 41.0017L21.7722 41.0038L21.9067 40.7218L21.9274 40.7104C22.0866 41.015 22.2378 41.2842 22.3828 41.5287C22.7612 42.1694 23.0968 42.6464 23.4147 43.1698C23.4162 43.1729 23.4187 43.176 23.4202 43.179C23.9085 43.9784 24.5051 44.4005 24.5051 44.4005C24.5051 44.4005 24.8039 44.6948 25.3117 44.7433H25.3142C25.3964 44.7515 25.4845 44.7526 25.5777 44.745C25.6704 44.7526 25.7586 44.751 25.8413 44.7433H25.8438C26.3516 44.6948 26.6504 44.4005 26.6504 44.4005C26.6504 44.4005 27.2465 43.9784 27.7347 43.179C27.7363 43.176 27.7393 43.1729 27.7408 43.1698C28.0587 42.6464 28.3942 42.1694 28.7727 41.5287C28.9177 41.2837 29.0689 41.015 29.2281 40.7104L29.2493 40.7218Z" fill="white"></path><path d="M46.4921 26.1267C46.6029 26.2158 46.7344 26.2797 46.8775 26.3099C46.8326 26.9552 46.76 27.5954 46.6588 28.2294L46.5544 28.2129C46.3883 28.9873 46.0663 29.8715 45.6914 30.7374C46.1187 29.26 46.3918 27.7166 46.4921 26.1267Z" fill="white"></path><path d="M46.5538 28.2129L46.6581 28.2293C46.3885 29.9318 45.9189 31.5923 45.2524 33.1925C44.1772 35.7752 42.6374 38.0937 40.6764 40.0853C39.6682 41.1092 38.5749 42.0201 37.4049 42.8117C37.4044 42.8123 37.4039 42.8123 37.4034 42.8123C36.9591 43.0093 36.5766 43.1531 36.2773 43.1966C36.2808 43.1931 36.3222 43.1552 36.7716 42.7371C41.0221 39.9994 44.2401 35.751 45.6891 30.7414C45.6897 30.7397 45.6897 30.7392 45.6902 30.7387C45.6907 30.7377 45.6907 30.7372 45.6907 30.7372C46.0656 29.8714 46.388 28.9871 46.5538 28.2129Z" fill="white"></path><path d="M45.6891 30.7415C44.2401 35.7513 41.0219 39.9995 36.7715 42.7373C37.0828 42.4481 37.5913 41.9752 38.4196 41.2046C38.9854 40.7769 39.5422 40.2657 39.9992 39.735C41.6296 38.2182 42.9235 36.3039 43.8626 34.6311C45.0165 32.5776 45.6362 30.8884 45.6871 30.7466L45.6891 30.7415Z" fill="white"></path><path d="M45.6877 30.7468C45.6368 30.8886 45.017 32.5778 43.8633 34.6313C43.9651 34.4517 44.019 34.2531 44.0225 34.051C44.4663 33.2671 45.134 32.0272 45.6877 30.7468Z" fill="white"></path><path d="M46.4912 26.1265C46.391 27.7164 46.1178 29.2597 45.6907 30.7371L45.6902 30.7386L45.689 30.7412L45.6871 30.7463C45.1329 32.0267 44.4652 33.266 44.0219 34.05C44.0244 33.9373 44.0108 33.8238 43.9816 33.7117C43.9029 33.4139 43.7206 33.1631 43.4646 32.9999C43.5256 32.8618 43.5855 32.7231 43.6439 32.5828C44.6658 30.1292 45.1837 27.5214 45.1837 24.8324C45.1837 22.1432 44.6653 19.5361 43.6439 17.0819C43.4778 16.6832 43.2999 16.2913 43.1094 15.9064C43.1981 15.8797 43.2828 15.8425 43.3633 15.7948C43.639 15.6332 43.8369 15.3717 43.9191 15.0594C43.9694 14.8691 43.9735 14.6732 43.9321 14.4858C45.5661 17.4876 46.5068 20.9295 46.5336 24.5882" fill="white"></path><path d="M43.4648 33.0007C43.7208 33.1634 43.9036 33.4142 43.9818 33.7125C44.0115 33.8246 44.0251 33.9382 44.0221 34.0508C43.7289 34.5687 43.5339 34.8879 43.5339 34.8879L43.4029 35.0875C43.23 35.1837 43.033 35.2374 42.8289 35.2374C42.6672 35.2374 42.5075 35.2037 42.3594 35.1393C42.4364 35.0098 42.5115 34.8803 42.5856 34.7493C42.5897 34.7508 42.5942 34.7524 42.5983 34.7534C42.6098 34.7574 42.6209 34.7611 42.6329 34.7641C42.6345 34.7651 42.637 34.7656 42.639 34.7656C42.6537 34.7693 42.6687 34.7728 42.6834 34.7753C42.6844 34.7764 42.6854 34.7764 42.6869 34.7764C42.6989 34.779 42.7111 34.781 42.7232 34.7825C42.7383 34.7846 42.7529 34.7866 42.7675 34.7876C42.7746 34.7886 42.7821 34.7892 42.7892 34.7892C42.8017 34.7897 42.8154 34.7902 42.8279 34.7902C43.0879 34.7908 43.3409 34.6536 43.4799 34.4085C43.4925 34.3859 43.5047 34.3629 43.5147 34.3394C43.5248 34.3163 43.5339 34.2928 43.542 34.2688C43.5469 34.2529 43.5515 34.237 43.556 34.2207C43.5812 34.1239 43.5867 34.0246 43.5746 33.928C43.5732 33.9116 43.5702 33.8952 43.5666 33.8794C43.5646 33.8655 43.5616 33.8517 43.5575 33.838C43.5565 33.8338 43.556 33.8292 43.5545 33.8251C43.551 33.8113 43.5464 33.798 43.5425 33.7841C43.5374 33.7684 43.5319 33.7534 43.5258 33.7382C43.5207 33.7238 43.5142 33.71 43.5077 33.6961C43.5072 33.6946 43.5062 33.6936 43.5062 33.6921C43.4991 33.6772 43.492 33.6629 43.4834 33.6491C43.476 33.6352 43.4679 33.6214 43.4593 33.6082C43.4588 33.6077 43.4583 33.607 43.4583 33.607C43.4497 33.5933 43.4397 33.5795 43.4301 33.5661C43.422 33.5554 43.4144 33.5452 43.4054 33.5349C43.3993 33.5272 43.3928 33.5191 43.3857 33.5119C43.3818 33.5068 43.3772 33.5022 43.3727 33.497C43.3651 33.4884 43.357 33.4807 43.3484 33.473C43.347 33.4715 43.346 33.47 43.3445 33.469C43.3394 33.4638 43.3338 33.4593 43.3288 33.4541C43.3237 33.449 43.3177 33.4444 43.3122 33.4398C43.3011 33.4301 43.2895 33.4209 43.2774 33.4121C43.2769 33.4111 43.2778 33.4116 43.2774 33.4121L43.2764 33.4111C43.3409 33.2755 43.4039 33.1384 43.4648 33.0007Z" fill="white"></path><path d="M43.5347 34.8874C43.5347 34.8874 43.7297 34.5687 44.023 34.0508C44.0194 34.2529 43.9656 34.4515 43.8638 34.6311C43.7534 34.8255 43.5927 34.9816 43.4043 35.0869L43.5347 34.8874Z" fill="white"></path><path d="M43.8634 34.6309C42.9248 36.3037 41.6304 38.2181 40 39.7348C41.4138 38.0937 42.9415 35.7894 42.9415 35.7894L43.4029 35.0874C43.5919 34.9824 43.7532 34.8259 43.8634 34.6309Z" fill="white"></path><path d="M43.4262 32.9767C43.4393 32.9844 43.4524 32.9925 43.465 33.0002C43.4041 33.1379 43.3411 33.2756 43.2771 33.4111L43.2751 33.4096C43.27 33.405 43.2645 33.4014 43.2589 33.3973C43.2538 33.3932 43.2484 33.3896 43.2428 33.3861C43.2312 33.3779 43.2192 33.3702 43.2065 33.363C43.1909 33.3544 43.1758 33.3457 43.1601 33.3385C43.1486 33.3323 43.137 33.3267 43.1249 33.322C43.1068 33.3138 43.0882 33.3068 43.0695 33.3006C43.0619 33.298 43.0543 33.2955 43.0468 33.2934C43.0443 33.2919 43.0418 33.2914 43.0392 33.2914C43.0307 33.2883 43.0222 33.2863 43.0131 33.2843C43.004 33.2811 42.9939 33.2791 42.9844 33.2776V32.8237C43.139 32.8452 43.2896 32.8969 43.4262 32.9767Z" fill="white"></path><path d="M42.9855 32.7749V32.8239C42.9724 32.8224 42.9589 32.8209 42.9453 32.8192L42.9855 32.7749Z" fill="white"></path><path d="M42.9841 32.6075C42.9162 32.5496 42.8109 32.4571 42.6758 32.3328V16.0922L42.7614 15.9582H42.7685C42.8406 15.9582 42.9137 15.9515 42.9841 15.9382V32.6075Z" fill="white"></path><path d="M42.6763 32.3328C42.8109 32.4571 42.9166 32.5496 42.9846 32.6075V32.7754L42.9444 32.8198C42.9071 32.8163 42.8693 32.8148 42.831 32.8148C42.7791 32.8148 42.7272 32.8183 42.6758 32.825L42.6763 32.3328Z" fill="white"></path><path d="M42.8291 35.2366C43.0332 35.2366 43.2292 35.1834 43.4026 35.0872L42.941 35.7893C42.941 35.7893 41.4129 38.0936 39.9995 39.7347C39.3738 40.317 38.8528 40.8016 38.42 41.2044C37.2415 42.0958 36.0243 42.6259 35.5879 42.2196C35.6247 42.1275 35.67 42.0093 35.7204 41.8798C37.0676 41.0523 38.3132 40.0601 39.4419 38.9134C39.5663 38.7869 39.6892 38.6585 39.8106 38.5285C39.8121 38.5265 39.8146 38.524 39.8167 38.5219C39.858 38.4784 39.8987 38.4349 39.9376 38.3915C39.9416 38.3873 39.9456 38.3827 39.9492 38.3791C40.8647 37.3792 41.6708 36.2959 42.3601 35.1384C42.5077 35.2029 42.6675 35.2366 42.8291 35.2366Z" fill="white"></path><path d="M42.3982 15.5569L42.2248 15.8245C42.0233 15.7196 41.8514 15.5574 41.7351 15.3527C41.7074 15.304 41.6831 15.2539 41.663 15.2027C41.6222 15.1014 41.596 14.9955 41.5845 14.8896C41.5637 14.713 41.5823 14.5349 41.6358 14.3682C41.6681 14.2694 41.7123 14.1742 41.7688 14.0857C41.8197 14.0064 41.8791 13.9326 41.9487 13.8672C42.0152 13.8032 42.0898 13.7464 42.172 13.6983C42.3528 13.5918 42.5589 13.5361 42.7674 13.5361C42.8461 13.5361 42.9231 13.5442 42.9987 13.5591C43.2153 13.6031 43.4159 13.707 43.5771 13.858C43.6648 13.9393 43.7404 14.0344 43.8013 14.1419C43.8013 14.1414 43.8013 14.1424 43.8013 14.1419C43.8629 14.2504 43.9081 14.3677 43.9333 14.4864C43.9742 14.6736 43.9706 14.8707 43.9208 15.061C43.8386 15.3731 43.6406 15.6346 43.365 15.7963C43.2844 15.8439 43.1993 15.8808 43.1111 15.908C43.0703 15.9202 43.0279 15.931 42.9857 15.9387C42.9146 15.9519 42.842 15.9586 42.77 15.9586C42.7679 15.9586 42.7649 15.9586 42.7629 15.9586L42.7831 15.9263L42.3982 15.5569ZM42.0888 15.0748C42.0913 15.081 42.0938 15.0872 42.0974 15.0927C42.1029 15.105 42.1094 15.1168 42.1165 15.1291C42.1311 15.1551 42.1472 15.1798 42.1644 15.2027C42.1698 15.2104 42.1759 15.2182 42.182 15.2257C42.188 15.2344 42.1946 15.2422 42.2022 15.2504C42.2233 15.2759 42.247 15.2995 42.2716 15.3215C42.2777 15.3272 42.2838 15.3327 42.2908 15.3374C42.2949 15.3414 42.2993 15.3445 42.3034 15.3476C42.3074 15.3507 42.3109 15.3537 42.315 15.3568C42.319 15.3599 42.3231 15.3629 42.3271 15.3654C42.3286 15.3671 42.3302 15.3681 42.3322 15.3691C42.3412 15.3757 42.3508 15.3824 42.3604 15.3886C42.382 15.4033 42.4041 15.4161 42.4274 15.4275C42.4364 15.4325 42.4465 15.4372 42.4561 15.4417C42.4929 15.4587 42.5301 15.4724 42.5684 15.4832C42.5724 15.4842 42.576 15.4847 42.5795 15.4857C42.5831 15.4868 42.5866 15.4873 42.5906 15.4883C42.5981 15.4904 42.6057 15.4919 42.6128 15.4934C42.6214 15.4954 42.6304 15.4976 42.639 15.4986C42.6405 15.4991 42.641 15.4991 42.642 15.4991C42.6536 15.5011 42.6651 15.5031 42.6768 15.5041C42.6913 15.5056 42.706 15.5073 42.7206 15.5083C42.7362 15.5098 42.7514 15.5098 42.7674 15.5098C42.7796 15.5098 42.7921 15.5098 42.8042 15.5088C42.8128 15.5083 42.8218 15.5078 42.8304 15.5073C42.836 15.5073 42.842 15.5062 42.8471 15.5056C42.8547 15.5051 42.8621 15.5041 42.8697 15.5031C42.8814 15.5016 42.8924 15.5001 42.903 15.4981C42.9175 15.4959 42.9322 15.4929 42.9464 15.4888C42.9589 15.4857 42.972 15.4827 42.9842 15.4781C42.9837 15.4781 42.9847 15.4786 42.9842 15.4781H42.9857C42.9886 15.4771 42.9916 15.4765 42.9947 15.475C43.0053 15.4719 43.0154 15.4684 43.0254 15.4642C43.0375 15.4602 43.049 15.4555 43.0612 15.4499C43.0894 15.4382 43.1171 15.4243 43.1444 15.4085C43.5041 15.1972 43.6275 14.7304 43.4194 14.365C43.3499 14.2427 43.2516 14.1466 43.1388 14.0826C42.9146 13.9536 42.6309 13.9455 42.3921 14.0857C42.379 14.0933 42.3658 14.1015 42.3533 14.1097C42.3346 14.122 42.3165 14.1354 42.2998 14.1496C42.2898 14.1574 42.2802 14.1656 42.2706 14.1736C42.2691 14.1752 42.2672 14.1768 42.2657 14.1783C42.2535 14.1891 42.2419 14.2003 42.2309 14.212C42.2228 14.2203 42.2152 14.2285 42.2081 14.2372C42.2032 14.2422 42.1981 14.2484 42.1936 14.254C42.1855 14.2632 42.1779 14.2729 42.1708 14.2822C42.1578 14.2991 42.1452 14.317 42.1342 14.3353C42.1271 14.3457 42.121 14.3564 42.1149 14.3672C42.1043 14.385 42.0953 14.4034 42.0862 14.4224C42.0807 14.4346 42.0751 14.4475 42.0707 14.4598C42.0636 14.4772 42.057 14.495 42.0515 14.5129C42.0484 14.5216 42.0459 14.5304 42.0434 14.5396C42.0415 14.5473 42.0388 14.5554 42.0374 14.5626C42.0369 14.5636 42.0369 14.5641 42.0369 14.5641C42.0339 14.5765 42.0308 14.5892 42.0283 14.6015C42.0268 14.6112 42.0248 14.6209 42.0238 14.6302C42.0223 14.6384 42.0212 14.6461 42.0202 14.6542C42.0182 14.6691 42.0167 14.6833 42.0162 14.6982C42.0147 14.714 42.0147 14.7304 42.0147 14.7464C42.0147 14.7586 42.0147 14.7709 42.0157 14.7836C42.0162 14.7954 42.0172 14.8067 42.0182 14.818C42.0192 14.8292 42.0197 14.84 42.0217 14.8512C42.0233 14.864 42.0253 14.8774 42.0283 14.8896C42.0293 14.8957 42.0298 14.9019 42.0319 14.9075C42.0329 14.9151 42.0344 14.9223 42.0369 14.9295C42.0383 14.9356 42.0398 14.9418 42.042 14.9485C42.0444 14.9597 42.0474 14.971 42.0515 14.9817C42.0535 14.9899 42.0565 14.9976 42.0596 15.0052C42.0681 15.0288 42.0776 15.0518 42.0888 15.0748Z" fill="white"></path><path d="M42.6761 15.954C42.5169 15.9418 42.3632 15.8967 42.2246 15.8245L42.398 15.5569L42.7814 15.9259L42.7613 15.9581C42.7326 15.9581 42.7044 15.9565 42.6761 15.954Z" fill="white"></path><path d="M42.6758 15.9541C42.704 15.9566 42.7327 15.9581 42.7614 15.9581L42.6758 16.0923V15.9541Z" fill="white"></path><path d="M42.6758 32.9482C42.7231 32.9533 42.7705 32.9575 42.8183 32.9605L42.6758 33.1207V32.9482Z" fill="white"></path><path d="M42.6758 32.8244C42.7267 32.8179 42.7791 32.8142 42.831 32.8142C42.8688 32.8142 42.9066 32.8157 42.9444 32.8194L42.8188 32.9606C42.771 32.9576 42.7231 32.9534 42.6763 32.9484L42.6758 32.8244Z" fill="white"></path><path d="M42.7423 33.2671C42.7342 33.2681 42.7267 33.2686 42.7187 33.2707C42.7151 33.2707 42.7116 33.2712 42.7081 33.2723C42.6974 33.2738 42.6863 33.2753 42.6758 33.2779V33.1207L42.8183 32.9606L42.9439 32.8193C42.9569 32.8209 42.9706 32.8225 42.9841 32.824V33.2784L42.9826 33.2779C42.9736 33.2758 42.9635 33.2738 42.9539 33.2728C42.9493 33.2712 42.9454 33.2707 42.9409 33.2707C42.9323 33.2691 42.9227 33.2676 42.9142 33.2666C42.9081 33.2656 42.902 33.2651 42.895 33.2651C42.8869 33.2641 42.8794 33.2636 42.8718 33.2636C42.8582 33.2626 42.8441 33.2621 42.83 33.2621C42.8139 33.2621 42.7977 33.2626 42.7822 33.2636C42.7685 33.2641 42.7554 33.2651 42.7423 33.2671Z" fill="white"></path><path d="M42.2244 15.8247C42.363 15.8975 42.5166 15.9419 42.6758 15.9542V16.0924L38.0284 23.4182C37.9472 23.0365 37.8732 22.6593 37.8047 22.2888L42.0949 16.0238L42.2244 15.8247Z" fill="white"></path><path d="M42.6759 32.8244C42.5726 32.8383 42.4728 32.8653 42.3781 32.9047C39.7626 32.4115 38.0849 29.2066 37.6873 27.8791C37.2631 26.4643 36.6877 24.4332 36.3641 21.1515C36.3632 21.1413 36.3622 21.1306 36.3612 21.1203C36.078 18.2762 35.3873 16.0778 35.2129 15.5569C36.0206 15.6894 36.5964 15.6803 36.5964 15.6803C36.5964 15.6803 36.667 16.0236 37.1013 18.1979C37.3169 19.2792 37.5129 20.7176 37.8047 22.2886L37.2177 23.1462L37.8239 23.7409L38.0285 23.418C38.2939 24.6742 38.6335 25.9776 39.1005 27.2227C40.0307 29.7013 41.8703 31.5881 42.6754 32.3326L42.6759 32.8244Z" fill="white"></path><path d="M42.377 32.9055C42.4717 32.8661 42.5715 32.839 42.6747 32.8252V32.949C42.5739 32.9382 42.4751 32.9235 42.377 32.9055Z" fill="white"></path><path d="M42.3784 32.9053C42.4766 32.9237 42.5759 32.9386 42.6762 32.9489V33.1213L42.4655 33.3572C42.4508 33.3653 42.4358 33.374 42.4221 33.3838C42.4086 33.3925 42.395 33.4022 42.3819 33.4124C42.3683 33.4222 42.3556 33.4329 42.3426 33.4441C42.33 33.4549 42.3169 33.4667 42.3053 33.4785C42.2972 33.4861 42.2896 33.4938 42.2832 33.5015C42.2433 33.5434 42.2086 33.591 42.1788 33.6432C42.1702 33.6581 42.1627 33.6734 42.1557 33.6883C42.1496 33.7001 42.1441 33.7113 42.14 33.723C42.139 33.7235 42.139 33.7246 42.139 33.7251L42.1204 33.745C41.9712 33.7542 41.8201 33.7574 41.668 33.7532C41.6941 33.6387 41.7364 33.5266 41.7975 33.4196C41.931 33.1847 42.138 33.0057 42.3784 32.9053Z" fill="white"></path><path d="M42.4544 34.687C42.4689 34.6957 42.4836 34.7033 42.4981 34.7105L42.5001 34.7115C42.5153 34.7192 42.5299 34.7259 42.5445 34.7319C42.5581 34.7376 42.5722 34.7432 42.5864 34.7479C42.5123 34.8789 42.4372 35.0088 42.36 35.1378C42.3168 35.1194 42.2744 35.0979 42.2336 35.0738C42.1137 35.0037 42.0109 34.9157 41.9258 34.8149L42.3445 34.6082C42.3531 34.6159 42.3612 34.6229 42.3702 34.6296C42.3818 34.6383 42.3928 34.6466 42.4044 34.6553C42.408 34.6573 42.412 34.6603 42.416 34.6628C42.4286 34.6716 42.4417 34.6793 42.4544 34.687Z" fill="white"></path><path d="M42.4648 33.3571L42.6754 33.1211V33.2782C42.6669 33.2797 42.6574 33.2819 42.6483 33.2844C42.6422 33.2859 42.6361 33.2875 42.629 33.2895C42.617 33.2926 42.6054 33.2962 42.5939 33.3002L42.5919 33.3012C42.5762 33.3064 42.5615 33.3121 42.5465 33.3181C42.5359 33.3223 42.5257 33.3269 42.5152 33.332C42.5066 33.3356 42.498 33.3401 42.4896 33.3443C42.4825 33.3478 42.4749 33.3514 42.4683 33.3555L42.4648 33.3571Z" fill="white"></path><path d="M42.1513 34.356C42.1528 34.36 42.1554 34.3642 42.1574 34.3682C42.1624 34.38 42.1685 34.3912 42.1751 34.4019C42.181 34.4137 42.1881 34.4256 42.1957 34.4363C42.1982 34.4413 42.2012 34.446 42.2048 34.4511C42.2102 34.4598 42.2163 34.4685 42.2229 34.4772C42.2421 34.5039 42.2632 34.5299 42.2869 34.5545C42.2904 34.5586 42.2939 34.5621 42.298 34.5663C42.3015 34.5703 42.3056 34.574 42.3096 34.5775C42.3115 34.5795 42.3141 34.5821 42.3161 34.5832C42.3252 34.5923 42.3348 34.601 42.3444 34.6087L41.9256 34.8155C41.8576 34.7347 41.8007 34.6456 41.7559 34.5509L42.1513 34.356Z" fill="white"></path><path d="M42.4642 33.3577L42.1387 33.7236C42.1431 33.7117 42.1482 33.7005 42.1542 33.6887C42.1613 33.6735 42.1694 33.6586 42.1774 33.6438C42.2072 33.5915 42.242 33.544 42.2817 33.5019C42.2883 33.4938 42.2959 33.4861 42.3038 33.4789C42.316 33.4667 42.3286 33.4554 42.3411 33.4447C42.3538 33.4335 42.3669 33.4227 42.3805 33.413C42.3936 33.4028 42.4071 33.3935 42.4208 33.3843C42.4348 33.3741 42.4495 33.3659 42.4642 33.3577Z" fill="white"></path><path d="M41.6666 33.7536C41.8187 33.7578 41.9694 33.7553 42.119 33.7455L42.1377 33.7256C42.1332 33.7353 42.1292 33.7455 42.1256 33.7558C42.1241 33.7583 42.1231 33.7608 42.1226 33.7645C42.1211 33.7695 42.119 33.7736 42.1175 33.7788C42.116 33.7839 42.114 33.7885 42.1125 33.7935C42.1079 33.8069 42.104 33.8207 42.1004 33.8351C42.0964 33.8499 42.0934 33.8648 42.0908 33.8796C42.0878 33.8938 42.0858 33.9082 42.0838 33.9225C42.0823 33.9302 42.0817 33.9374 42.0812 33.9451C42.0807 33.9477 42.0802 33.9502 42.0802 33.9532C42.0787 33.9639 42.0787 33.9742 42.0782 33.985C42.0758 34.029 42.0767 34.0725 42.0823 34.116C42.0833 34.1236 42.0838 34.1313 42.0853 34.139C42.0868 34.1477 42.0878 34.1559 42.0898 34.1645C42.0908 34.1722 42.0924 34.1799 42.0944 34.1871C42.0949 34.1922 42.0959 34.1969 42.0974 34.2019C42.0999 34.2132 42.1025 34.2239 42.106 34.2353C42.1089 34.247 42.1125 34.2583 42.1165 34.2695C42.1216 34.2849 42.1266 34.2997 42.1327 34.314C42.1377 34.3263 42.1427 34.3386 42.1483 34.3509C42.1493 34.3529 42.1498 34.355 42.1508 34.357L41.7553 34.5519C41.6394 34.3059 41.6056 34.0238 41.6666 33.7536Z" fill="white"></path><path d="M41.7561 34.551C41.8004 34.6451 41.8573 34.7342 41.9258 34.8155L37.4512 37.0237C37.4965 36.8834 37.5414 36.7448 37.5856 36.6091L41.7561 34.551Z" fill="white"></path><path d="M40.5563 10.25C41.0371 10.8334 42.3919 12.5082 42.9981 13.5588C42.923 13.5439 42.8453 13.5358 42.7668 13.5358C42.5587 13.5358 42.3526 13.5915 42.1712 13.698C42.089 13.7461 42.0145 13.8029 41.948 13.8669C41.223 12.7518 40.3856 11.7105 39.4419 10.752C39.2559 10.5632 39.067 10.379 38.875 10.1994C39.4942 10.1374 40.0983 10.1845 40.5563 10.25Z" fill="white"></path><path d="M32.2285 9.43213L41.7703 14.0857C41.7139 14.1737 41.6695 14.269 41.6373 14.3682L32.7147 10.0165C32.5605 9.81797 32.3993 9.623 32.2285 9.43213Z" fill="white"></path><path d="M41.583 14.8896C41.5951 14.9956 41.6208 15.101 41.6616 15.2028H36.7738C36.6982 15.1332 36.5868 15.0283 36.4473 14.8896H41.583Z" fill="white"></path><path d="M41.5674 10.3758L40.9487 10.299C39.4357 8.63903 37.6656 7.22463 35.7031 6.12034L36.0372 5.83838C37.7306 6.80502 39.285 8.00245 40.6767 9.41582C40.9845 9.72848 41.2813 10.0483 41.5674 10.3758Z" fill="white"></path><path d="M46.9274 24.428C46.8876 21.6145 46.3244 18.8845 45.2517 16.3095C44.3447 14.1316 43.1077 12.1405 41.566 10.3756L40.9473 10.2988C40.9539 10.3055 40.9593 10.3116 40.9659 10.3183C41.9504 11.4 42.8266 12.5857 43.5748 13.8569C43.6625 13.9382 43.7381 14.0333 43.799 14.1408C43.799 14.1403 43.799 14.1413 43.799 14.1408C43.8605 14.2493 43.9059 14.3665 43.931 14.4852C45.565 17.4868 46.5062 20.9298 46.5329 24.5887C46.5339 24.6423 46.5339 24.6967 46.5339 24.7503C46.5339 25.1076 46.5253 25.4626 46.5077 25.8157C46.5032 25.9196 46.4976 26.0225 46.491 26.1258C46.6019 26.2148 46.7334 26.2789 46.8766 26.3091C46.8866 26.1627 46.8957 26.0163 46.9028 25.869C46.9214 25.498 46.9305 25.1249 46.9305 24.7503C46.9299 24.6434 46.9294 24.5353 46.9274 24.428Z" fill="white"></path><path d="M40.5566 10.25L40.9496 10.2991C40.9562 10.3058 40.9618 10.3119 40.9683 10.3186C40.8514 10.2961 40.7124 10.272 40.5566 10.25Z" fill="white"></path><path d="M40.5566 10.25C40.7124 10.272 40.8514 10.2961 40.9678 10.3191C41.9524 11.4009 42.8286 12.5865 43.5768 13.8576C43.4155 13.7066 43.215 13.6028 42.9984 13.5588C42.3922 12.5082 41.0374 10.8328 40.5566 10.25Z" fill="white"></path><path d="M39.4416 38.9134C38.3131 40.0596 37.068 41.0524 35.7207 41.8799C35.8431 41.5641 35.9918 41.1783 36.0896 40.9234C36.0896 40.9234 38.4894 39.8954 39.81 38.5286C39.689 38.6585 39.5661 38.787 39.4416 38.9134Z" fill="white"></path><path d="M38.4199 41.2045C38.8527 40.8012 39.3737 40.3172 39.9995 39.7349C39.5425 40.2655 38.9857 40.7767 38.4199 41.2045Z" fill="white"></path><path d="M38.3456 34.2175C38.3456 34.2175 38.0105 35.2972 37.5872 36.6088L36.7559 37.0187C37.1343 35.7348 37.3585 34.5935 37.4466 34.1028C37.9616 34.1985 38.3456 34.2175 38.3456 34.2175Z" fill="white"></path><path d="M38.0295 23.4181L37.8249 23.7411L37.2188 23.1464L37.8058 22.2888C37.8742 22.6593 37.9483 23.0364 38.0295 23.4181Z" fill="white"></path><path d="M36.7543 37.019L37.5857 36.6091C37.5419 36.7452 37.4965 36.8839 37.4512 37.0236L36.6289 37.4289C36.6727 37.2907 36.7145 37.1541 36.7543 37.019Z" fill="white"></path><path d="M35.8934 33.6084C36.0037 33.6606 36.1141 33.7102 36.223 33.7558C36.6346 33.9262 37.0739 34.0346 37.4447 34.1037C37.3561 34.5944 37.1319 35.735 36.7539 37.0196L35.1719 37.7999C35.4898 36.2315 35.7942 34.2649 35.8934 33.6084Z" fill="white"></path><path d="M36.7746 15.2028H36.3398V14.8896H36.4481C36.5872 15.0283 36.6985 15.1327 36.7746 15.2028Z" fill="white"></path><path d="M36.2774 43.1971C36.1785 43.2119 36.0894 43.215 36.0098 43.2058C36.2673 43.0549 36.5212 42.8987 36.7716 42.7371C36.3222 43.1557 36.2808 43.1936 36.2774 43.1971Z" fill="white"></path><path d="M36.0923 40.9234C36.0626 40.9373 35.5894 40.5934 35.3652 40.4282C35.3974 40.3749 35.4282 40.3212 35.458 40.2675C35.9391 39.4078 36.3281 38.3935 36.631 37.4284L37.4532 37.0232C37.0149 38.3695 36.5145 39.8586 36.1971 40.6497C36.1971 40.6497 36.1558 40.7592 36.0923 40.9234Z" fill="white"></path><path d="M36.0393 5.83827L35.7054 6.12022C32.7024 4.4295 29.25 3.46644 25.5801 3.46644V3.06372C28.4625 3.06372 31.2589 3.63736 33.8914 4.76826C34.6296 5.08553 35.3461 5.4427 36.0393 5.83827Z" fill="white"></path><path d="M35.5875 42.2197C36.0239 42.6259 37.2412 42.0958 38.4196 41.2043C37.5914 41.975 37.083 42.4478 36.7716 42.7369C36.5212 42.8986 36.2673 43.0547 36.0097 43.2057C35.8969 43.1929 35.8042 43.155 35.7316 43.088C35.4531 42.828 35.4082 42.6673 35.5321 42.3582C35.5463 42.3245 35.5654 42.2769 35.5875 42.2197Z" fill="white"></path><path d="M35.8956 33.6079C35.7963 34.265 35.492 36.2315 35.174 37.7995L33.8066 38.4739C34.1523 35.9869 34.1246 32.5691 34.1246 32.5691C34.1246 32.5691 35.0089 33.1858 35.8956 33.6079Z" fill="white"></path><path d="M37.6868 27.8794C37.2626 26.4645 36.6872 24.4335 36.3638 21.1518C36.3628 21.1415 36.3617 21.1308 36.3607 21.1206C36.0776 18.2764 35.3868 16.078 35.2124 15.5571C34.6703 15.4687 34.0239 15.3171 33.377 15.0562C33.5805 15.3857 33.974 16.1007 34.2969 17.1522C34.7549 18.6429 34.8356 20.5854 34.8356 20.5854C34.8356 20.5854 34.8441 20.7977 34.8618 21.1395C34.892 21.7485 34.9494 22.7689 35.0311 23.7366C35.1586 25.2476 35.4044 27.7259 36.3437 30.1054C37.2202 32.3263 39.532 33.6987 41.6673 33.7539C41.6934 33.6394 41.7358 33.5273 41.7967 33.4203C41.9303 33.1849 42.1374 33.0064 42.3777 32.9056C39.7623 32.4122 38.0844 29.2068 37.6868 27.8794Z" fill="white"></path><path d="M28.8539 9.37452C29.1069 9.52546 29.3507 9.69126 29.5921 9.86116C29.8339 10.0316 30.0682 10.2132 30.297 10.4026C30.7565 10.7792 31.1944 11.185 31.606 11.621C31.2538 11.1328 30.8436 10.6891 30.4099 10.2705C29.9735 9.85553 29.5029 9.47327 28.9991 9.13861C28.7462 8.97178 28.4862 8.81571 28.2161 8.67652C27.945 8.5399 27.6674 8.41503 27.3818 8.3091C27.3102 8.28301 27.2371 8.25948 27.165 8.23593C27.1283 8.22416 27.093 8.21137 27.0558 8.20062L26.9454 8.17044C26.8713 8.15098 26.7982 8.12745 26.7232 8.1121L26.499 8.06246C26.4239 8.04609 26.3478 8.03739 26.2723 8.02459L26.1584 8.00668C26.1206 8.00156 26.0824 7.99849 26.044 7.9944C25.9679 7.98774 25.8918 7.97854 25.8153 7.97342L25.7422 7.97086V6.65625C28.0614 6.70282 29.6783 7.32558 30.8976 8.21547L31.8111 9.57715L32.7135 10.0172C33.1412 10.5658 33.514 11.1353 33.8713 11.6865C34.873 13.2339 35.8888 14.3336 36.4495 14.8909H36.3411V15.204H36.776C36.8455 15.268 36.8858 15.3028 36.8904 15.3075C36.1135 15.206 35.3617 15.0121 34.6397 14.7563C33.8733 14.3501 33.109 13.7947 32.1346 13.02C31.1601 12.2458 30.5187 11.5944 29.0141 10.5689C27.684 9.6621 26.0934 9.55719 25.7427 9.5444V8.32702L25.7946 8.32856C25.8661 8.33367 25.9372 8.34084 26.0088 8.34749C26.0445 8.35107 26.0802 8.35311 26.116 8.35823L26.2224 8.37409C26.2934 8.38587 26.365 8.39355 26.4355 8.40839C26.7192 8.45956 26.9974 8.53887 27.2729 8.62791C27.5474 8.72105 27.8165 8.8326 28.0811 8.95695C28.2121 9.02245 28.3431 9.08692 28.471 9.15754C28.601 9.22508 28.727 9.30082 28.8539 9.37452Z" fill="white"></path><path d="M33.8045 38.474L35.172 37.7996C35.1453 37.9326 35.1176 38.062 35.0908 38.1879L33.748 38.8501C33.7682 38.7277 33.7868 38.6019 33.8045 38.474Z" fill="white"></path><path d="M35.0898 38.1876C35.1166 38.0618 35.1443 37.9323 35.171 37.7992L36.753 37.0188C36.7133 37.154 36.6714 37.2906 36.6281 37.4287L35.0898 38.1876Z" fill="white"></path><path d="M33.7487 38.8499L35.0914 38.1877C35.0602 38.3331 35.029 38.4738 34.9982 38.6069C34.5538 40.5212 33.1939 42.1894 31.3897 43.3239C29.5859 44.4589 26.6641 44.6605 26.6641 44.6605C27.0531 44.4579 27.4551 44.0444 27.828 43.565C29.8292 43.9001 32.9138 42.1311 33.531 39.8919C33.6151 39.5868 33.6872 39.2333 33.7487 38.8499Z" fill="white"></path><path d="M37.5246 32.5185C36.9084 31.9577 35.946 30.2997 35.5354 28.6182C35.1247 26.9361 34.9837 26.0335 34.9026 23.8868C34.8548 22.606 34.8396 21.6783 34.8355 21.1384C34.833 20.7735 34.835 20.5857 34.835 20.5857C34.835 20.5857 34.7545 18.6433 34.2965 17.1526C33.9735 16.101 33.58 15.3861 33.3764 15.0565C33.3502 15.0458 33.3246 15.0351 33.2984 15.0243C31.688 14.3529 31.1495 14.0346 31.1328 14.0249C31.161 14.0628 32.9633 16.518 33.3941 19.2854C33.4833 19.857 33.5331 20.4025 33.5564 20.9276C33.6465 22.9657 33.3337 24.6928 33.3337 26.4132C33.3337 28.5772 34.2526 32.6383 38.423 33.3556C38.423 33.3556 38.1408 33.0789 37.5246 32.5185Z" fill="white"></path><path d="M29.0136 10.5674C30.5187 11.5929 31.1596 12.2443 32.134 13.0186C33.108 13.7933 33.8723 14.348 34.6387 14.7543C32.4972 13.9959 30.6204 12.6951 29.1553 11.6753C27.1963 10.3111 25.7422 10.0271 25.7422 10.0271V9.54297C26.0929 9.55576 27.6835 9.66117 29.0136 10.5674Z" fill="white"></path><path d="M32.2278 9.43229L32.0198 9.33098L31.7598 8.9436C31.9241 9.10173 32.0792 9.26548 32.2278 9.43229Z" fill="white"></path><path d="M31.761 8.94368C31.4965 8.68629 31.2103 8.44117 30.8994 8.21447L28.8789 5.20044C29.0211 5.22398 29.1626 5.25008 29.3037 5.27822L31.761 8.94368Z" fill="white"></path><path d="M32.7144 10.0159L31.8119 9.5758L30.8984 8.21411C31.2099 8.4408 31.4955 8.68591 31.7601 8.94332L32.0201 9.33068L32.2282 9.43201C32.3989 9.62287 32.5601 9.81784 32.7144 10.0159Z" fill="white"></path><path d="M29.2267 40.7106C29.2917 40.5861 29.3577 40.4562 29.4256 40.319C29.7602 39.6421 30.0148 39.1988 30.2172 38.8427L30.2177 38.8412C30.4178 38.4887 30.5655 38.222 30.6884 37.8986C30.9352 37.2472 31.3544 35.7242 31.4658 34.3964C31.5514 33.3683 31.2809 32.3213 30.8425 31.3829C30.7145 31.1091 30.5719 30.8445 30.4208 30.5918C29.7492 29.4736 27.3257 27.8024 27.043 27.6534C26.7603 27.505 26.841 27.4027 26.922 27.3408C27.0027 27.2789 27.8009 26.8076 27.8009 26.8076C27.8009 26.8076 29.0226 27.2226 30.0117 28.1202C31.0012 29.0171 31.3096 29.6123 31.3096 29.6123C31.3096 29.6123 30.315 27.0077 30.4863 26.9514C30.6576 26.895 32.0412 27.7717 32.5258 29.0797C33.0105 30.387 32.9048 33.0946 32.5258 34.6021C32.147 36.1096 31.3091 37.3511 30.779 38.4021C30.4264 39.1017 29.9361 40.0018 29.6479 40.5248L29.2478 40.7223L29.2267 40.7106Z" fill="white"></path><path d="M30.3044 38.6053C30.8369 37.7501 31.1473 33.0541 30.9991 31.9401C30.9735 31.7482 30.915 31.564 30.833 31.388L30.8435 31.3828C31.2819 32.3218 31.5525 33.3684 31.4667 34.3963C31.356 35.7243 30.9367 37.2472 30.6893 37.8986C30.5664 38.2226 30.4182 38.4891 30.2188 38.8411C30.2514 38.7598 30.2797 38.682 30.3044 38.6053Z" fill="white"></path><path d="M33.7495 38.8498L29.3887 41.0011C29.4038 40.9709 29.4113 40.955 29.4113 40.955C29.4113 40.955 29.5051 40.7866 29.6502 40.5236L33.8059 38.4731C33.7883 38.6016 33.7696 38.7274 33.7495 38.8498Z" fill="white"></path><path d="M29.3845 41.0039L29.25 40.722L29.6501 40.5244C29.5049 40.7874 29.4112 40.9558 29.4112 40.9558C29.4112 40.9558 29.4036 40.9717 29.3886 41.0019L29.3845 41.0039Z" fill="white"></path><path d="M28.6236 4.26465L29.3028 5.27785C29.1612 5.24971 29.0202 5.22361 28.878 5.20008L28.3691 4.44119L28.6236 4.26465Z" fill="white"></path><path d="M28.4171 24.4384C28.7959 24.9977 28.8595 25.4229 28.9527 25.9076C29.0233 26.2739 29.065 26.7718 29.0812 26.9929C29.0096 26.9468 28.937 26.9059 28.8665 26.8711C28.4221 26.6556 28.3612 26.5815 28.3818 26.538C28.402 26.4939 28.7123 26.2765 28.6191 25.8737C28.5259 25.471 27.9474 24.3765 27.0844 24.5659C27.0844 24.5659 27.0068 21.759 27.0945 21.4381C27.098 21.4249 27.1025 21.4115 27.108 21.3982C27.1766 21.2263 27.3852 21.06 27.628 20.8486L27.6859 20.8815C27.7102 20.8656 27.7782 20.8518 27.9309 20.8486C27.7595 20.9756 27.5252 21.1921 27.5182 21.2228C27.5102 21.2565 27.4426 22.5665 27.5736 23.0635C27.7056 23.5613 28.0392 23.8796 28.4171 24.4384Z" fill="white"></path><path d="M28.8782 5.20026C28.1834 5.08001 27.48 4.99917 26.7701 4.95618C26.7343 4.32113 26.2138 3.81505 25.5801 3.81505V3.46655C29.25 3.46655 32.7024 4.42962 35.7054 6.12035C37.6679 7.22464 39.4373 8.63954 40.9509 10.299L40.5579 10.2499C40.0999 10.1844 39.4957 10.1379 38.877 10.1998C37.2079 8.63187 35.3048 7.38429 33.2113 6.48417C31.9471 5.94124 30.6411 5.53801 29.3039 5.27805L28.6248 4.26484L28.3698 4.44088L28.8782 5.20026Z" fill="white"></path><path d="M32.6487 20.8237C32.6447 20.7991 32.6406 20.7735 32.6356 20.747L30.9609 20.5898C30.789 20.7869 30.4882 21.0851 30.1622 21.2443C29.7002 21.47 29.0311 21.0754 28.7534 20.8855C28.4754 20.6958 28.1504 20.6983 27.9785 20.8166C27.9635 20.8268 27.9483 20.8381 27.9316 20.8503C28.3514 20.8416 28.5761 21.1046 29.0134 21.4501C29.4513 21.7954 29.8614 21.9218 30.4308 21.6757C30.9996 21.4296 32.2385 20.9476 32.2385 20.9476C32.2385 20.9476 31.7539 22.0416 30.8586 23.7578C29.9632 25.4742 29.7748 26.4931 29.7209 26.8277C29.6866 27.0427 29.7823 27.2243 29.8553 27.3266C29.9133 27.1081 30.0444 26.8711 30.2549 26.5315C30.3441 26.3881 30.4464 26.2264 30.5643 26.0396C31.0742 25.229 32.0285 23.6193 32.2758 23.1167C32.4457 22.7703 32.6165 22.19 32.6658 21.603C32.6886 21.337 32.6864 21.0698 32.6487 20.8237Z" fill="white"></path><path d="M32.2372 20.9466C32.2372 20.9466 31.7525 22.0406 30.8572 23.757C29.9619 25.4732 29.7733 26.4921 29.7195 26.8267C29.6852 27.0417 29.7809 27.2233 29.854 27.3256C29.8304 27.4162 29.8192 27.5027 29.8208 27.5928C29.8208 27.5928 29.46 27.2356 29.0811 26.9941C29.065 26.773 29.0232 26.2751 28.9527 25.9086C28.8595 25.4241 28.796 24.9984 28.417 24.4396C28.0387 23.8802 27.7056 23.5624 27.5741 23.065C27.4431 22.5677 27.5106 21.2577 27.5187 21.2245C27.5258 21.1941 27.76 20.9778 27.9313 20.8503C28.351 20.8416 28.5757 21.1047 29.0131 21.4501C29.4509 21.7955 29.8611 21.9218 30.4304 21.6758C30.9983 21.4286 32.2372 20.9466 32.2372 20.9466Z" fill="white"></path><path d="M28.6985 20.231C28.6985 20.2515 29.155 20.8256 29.7763 20.8645C30.3975 20.9029 30.8444 20.3109 30.9805 20.254C31.0051 20.2438 31.0274 20.2392 31.046 20.2392C31.1312 20.2392 31.1553 20.3313 31.1014 20.4132C31.0823 20.4424 31.0328 20.5073 30.9609 20.5891C30.789 20.7862 30.4882 21.0845 30.1622 21.2437C29.7003 21.4693 29.0311 21.0748 28.7534 20.885C28.4754 20.6951 28.1504 20.6976 27.9785 20.8159C27.9635 20.8261 27.9483 20.8373 27.9317 20.8496C27.779 20.8528 27.7111 20.866 27.6868 20.8824L27.6289 20.8496C27.8183 20.6849 28.029 20.493 28.2123 20.2495C28.6502 19.6687 29.2508 19.3779 29.6443 19.3569C30.0383 19.3365 30.2706 19.421 30.7553 19.6901C31.2394 19.9593 31.3332 20.0033 31.3105 20.0954C31.2933 20.165 31.2244 20.1777 31.0782 20.1245C31.0309 20.1076 30.9759 20.0836 30.9119 20.0519C30.6494 19.9235 30.0589 19.662 29.6343 19.7413C29.2109 19.8211 28.6985 20.2106 28.6985 20.231Z" fill="white"></path><path d="M24.8256 5.02643C24.8256 5.4486 25.1627 5.79044 25.5779 5.79044C25.993 5.79044 26.3301 5.4486 26.3301 5.02643C26.3301 4.99521 26.3286 4.96452 26.3246 4.93432C26.2802 4.55617 25.9628 4.26243 25.5784 4.26243C25.194 4.26243 24.8766 4.55565 24.8322 4.93432C24.8272 4.964 24.8256 4.99521 24.8256 5.02643ZM25.5779 3.81519C26.2123 3.81519 26.7328 4.32128 26.7679 4.95632C26.7694 4.97935 26.7701 5.00289 26.7701 5.02643C26.7701 5.69423 26.2349 6.23768 25.5774 6.23768C24.9198 6.23768 24.3848 5.69423 24.3848 5.02643C24.3848 5.00289 24.3858 4.97935 24.3868 4.95632C24.423 4.32128 24.9436 3.81519 25.5779 3.81519Z" fill="white"></path><path d="M26.6632 44.6607C26.6632 44.6607 29.5849 44.4591 31.3888 43.324C33.193 42.1895 34.5528 40.5208 34.9973 38.607C35.028 38.474 35.0593 38.3332 35.0905 38.1879L36.6283 37.429C36.3254 38.3941 35.9365 39.4083 35.4553 40.268C35.4256 40.3217 35.3943 40.3755 35.3626 40.4287C34.568 41.7664 33.2721 42.9919 31.5888 43.7927C31.5883 43.7938 31.5893 43.7932 31.5888 43.7927C30.0303 44.3034 28.417 44.611 26.769 44.7098C26.7069 44.7138 26.6445 44.7175 26.582 44.7205L26.6632 44.6607Z" fill="white"></path><path d="M26.5816 44.7204C26.6441 44.7173 26.7065 44.7138 26.7685 44.7096C28.4167 44.6109 30.0284 44.3039 31.5873 43.7932C30.1665 44.4696 28.469 44.8448 26.5645 44.7301C26.576 44.7245 26.5816 44.7204 26.5816 44.7204Z" fill="white"></path><path d="M25.578 3.46655V3.81505C24.9436 3.81505 24.4231 4.32113 24.3879 4.95618C23.678 4.99917 22.9746 5.08001 22.2798 5.20027L22.7886 4.44138L22.5337 4.26536L21.8545 5.27857C20.5173 5.53903 19.2113 5.94175 17.9472 6.48469C15.8537 7.38481 13.9507 8.63187 12.2814 10.2003C11.6627 10.1384 11.0586 10.1849 10.6006 10.2504C10.4449 10.2724 10.3058 10.2965 10.1895 10.3195C14.0191 6.10703 19.5005 3.46655 25.578 3.46655Z" fill="white"></path><path d="M25.5767 3.06445V3.46717C19.4993 3.46717 14.0179 6.10765 10.1871 10.3191C9.59158 10.9736 9.03583 11.666 8.52493 12.3921L8.14453 12.2201C8.83883 11.2264 9.61778 10.2899 10.4778 9.41695C12.4388 7.42533 14.7227 5.86151 17.2652 4.7695C19.8972 3.63757 22.6937 3.06445 25.5767 3.06445Z" fill="white"></path><path d="M32.4396 19.9547C32.182 19.0608 31.777 17.9222 31.6087 17.4699C31.3764 16.8441 30.8716 14.6288 28.9832 13.0291C27.454 11.733 26.0543 11.5861 25.5781 11.5769C25.102 11.5861 23.7029 11.733 22.1732 13.0291C20.2848 14.6288 19.7799 16.8441 19.5476 17.4699C19.3794 17.9222 18.9742 19.0608 18.7168 19.9547C19.0014 19.7286 19.5683 19.3248 20.2353 19.1084C20.1447 18.8976 19.9588 18.3485 20.0877 17.6183C20.2545 16.6752 20.8802 15.3161 21.7746 14.2803C22.6356 13.2825 24.382 12.5604 25.5786 12.5318C26.7754 12.5604 28.5216 13.2825 29.3827 14.2803C30.2765 15.3161 30.9023 16.6752 31.0696 17.6183C31.1986 18.3485 31.0126 18.8981 30.9219 19.1084C31.5881 19.3253 32.1549 19.7286 32.4396 19.9547Z" fill="white"></path><path d="M31.0772 17.5972C30.9104 16.654 30.2846 15.2949 29.3903 14.2592C28.5292 13.2613 26.7113 12.5267 25.5146 12.498V18.4468C25.4522 19.1141 25.3085 19.5676 25.2006 20.5532C25.0525 21.9149 25.2006 24.8334 25.2006 25.7872C25.2006 26.5584 25.4149 27.1288 25.5147 27.3192L25.5774 27.383C25.9665 27.3369 26.5123 26.8189 26.6262 26.6367C26.7401 26.4546 26.7471 26.278 26.7925 26.278C26.8383 26.278 27.2732 26.413 27.4989 26.3768C27.7241 26.3409 27.9513 26.1373 28.0285 26.0303C28.106 25.9223 28.0975 25.8297 27.8889 25.5483C27.6802 25.2658 27.4112 25.1788 27.1533 25.3671C26.8962 25.5549 26.598 25.6628 26.598 25.6628C26.598 25.6628 26.4418 25.6424 26.4418 24.5396C26.4418 23.5899 26.4453 22.3863 26.4463 21.2692C26.4468 21.0891 26.4468 20.9116 26.4468 20.7375C26.4468 19.4838 26.8071 19.0954 27.2178 18.9931C27.6284 18.8903 28.9646 18.8564 30.2302 18.945C30.4696 18.9614 30.7053 19.0136 30.9296 19.0862C31.0203 18.8769 31.2062 18.3279 31.0772 17.5972Z" fill="white"></path><path d="M26.8936 29.2533C25.9715 29.3219 25.5785 29.7323 25.5785 29.7323C25.5785 29.7323 25.1855 29.3219 24.2634 29.2533C23.3928 29.1887 22.4737 29.8683 21.8867 30.6978C21.9971 30.8335 22.2985 31.1062 22.9338 31.1267C23.7691 31.1533 24.5662 30.7413 24.5904 30.729C24.5904 30.729 25.0055 31.076 25.5785 31.1231C26.1508 31.076 26.5661 30.7285 26.5661 30.7285C26.5902 30.7408 27.3877 31.1533 28.2232 31.1267C28.8585 31.1062 29.1598 30.8335 29.2702 30.6978C28.6832 29.8683 27.7642 29.1887 26.8936 29.2533Z" fill="white"></path><path d="M26.3124 32.1459C26.1931 32.0129 25.9753 31.8195 25.5769 31.7786C25.1778 31.8195 24.9602 32.0129 24.8412 32.1459C24.7424 32.2554 24.6604 32.3287 24.5449 32.4514H25.5774H26.6097C26.4938 32.3287 26.4112 32.2554 26.3124 32.1459Z" fill="white"></path><path d="M25.4141 9.5437V10.0278C25.4141 10.0278 23.9599 10.3118 22.0009 11.676C20.5359 12.6959 18.659 13.9962 16.5176 14.7551C17.2839 14.3487 18.0478 13.7941 19.0223 13.0193C19.9967 12.2451 20.6381 11.5937 22.1426 10.5682C23.4722 9.6614 25.0633 9.55598 25.4141 9.5437Z" fill="white"></path><path d="M27.0177 32.9217C26.9532 32.8489 26.8777 32.7589 26.7818 32.6448C26.7158 32.5665 26.6599 32.5041 26.6101 32.4514H25.5776H24.5453C24.4955 32.5041 24.4395 32.567 24.3734 32.6448C24.2777 32.7589 24.2027 32.8489 24.1377 32.9217C24.1377 32.9217 23.975 34.227 24.1413 34.9655C24.3074 35.7039 24.7771 36.2524 25.1106 37.0267C25.163 37.149 25.2084 37.2744 25.2477 37.4007C25.2633 37.4514 25.2784 37.502 25.292 37.5522C25.4638 38.1719 25.5036 38.7574 25.5771 38.8689C25.6507 38.7574 25.6911 38.1724 25.8619 37.5532C25.8759 37.502 25.8911 37.4514 25.9067 37.4002C25.946 37.2744 25.9914 37.1485 26.0437 37.0262C26.3773 36.2519 26.8463 35.7034 27.0131 34.965C27.1804 34.227 27.0177 32.9217 27.0177 32.9217Z" fill="white"></path><path d="M28.04 34.6548C27.8516 33.8273 27.3603 33.219 27.2359 33.1299C27.1658 33.0798 27.0998 33.0147 27.0172 32.9216C27.0172 32.9216 27.18 34.227 27.0137 34.9654C26.8474 35.7039 26.3778 36.2525 26.0442 37.0266C25.9919 37.1489 25.9466 37.2743 25.9072 37.4007C25.8916 37.4518 25.8765 37.5026 25.8624 37.5538C25.691 38.1728 25.6508 38.7578 25.5777 38.8693C25.5041 38.7578 25.4638 38.1718 25.2926 37.5527C25.2789 37.502 25.2639 37.4513 25.2482 37.4012C25.2089 37.2754 25.1636 37.1494 25.1111 37.0271C24.7776 36.253 24.3085 35.7044 24.1417 34.9659C23.9755 34.2275 24.1382 32.9221 24.1382 32.9221C24.0556 33.0157 23.9896 33.0803 23.9196 33.1304C23.7955 33.2195 23.3039 33.8278 23.1155 34.6553C23.0635 34.8841 23.0574 35.0999 23.0831 35.3082C23.128 35.6747 23.2706 36.0175 23.4318 36.3608C23.5109 36.5292 23.5946 36.6986 23.6736 36.8705C23.9659 37.5107 25.284 39.6891 25.5777 40.1727C25.8715 39.6891 27.1895 37.5107 27.4817 36.8705C27.5603 36.6986 27.6444 36.5297 27.7236 36.3608C27.8848 36.018 28.0273 35.6752 28.0722 35.3087C28.0984 35.0999 28.0919 34.8831 28.04 34.6548Z" fill="white"></path><path d="M23.2754 25.5704C23.4841 25.2879 23.753 25.201 24.0111 25.3892C24.268 25.577 24.5662 25.685 24.5662 25.685C24.5662 25.685 24.7225 25.6645 24.7225 24.5618C24.7225 23.612 24.719 22.4085 24.718 21.2914C24.7175 21.1112 24.7175 20.9336 24.7175 20.7597C24.7175 19.506 24.3572 19.1176 23.9466 19.0153C23.5359 18.9123 22.1997 18.8786 20.9341 18.9671C20.6947 18.9836 20.459 19.0357 20.2348 19.1084C20.144 18.8975 19.9581 18.3485 20.0871 17.6182C20.2539 16.6751 20.8797 15.316 21.7739 14.2803C22.6351 13.2824 24.3814 12.5604 25.5781 12.5317V18.4805C25.5155 19.1478 25.387 19.5986 25.2793 20.5841C25.1311 21.9458 25.2173 24.8837 25.2173 25.8375C25.2173 26.6086 25.4783 27.1787 25.5781 27.369V27.3783C25.189 27.3323 24.652 26.8399 24.538 26.6578C24.4242 26.4756 24.4171 26.299 24.3719 26.299C24.326 26.299 23.8911 26.4342 23.6654 26.3978C23.4397 26.3621 23.213 26.1583 23.1358 26.0514C23.0583 25.9445 23.0664 25.8519 23.2754 25.5704Z" fill="white"></path><path d="M24.5892 44.7301C22.6847 44.8448 20.9872 44.4696 19.5664 43.7932C21.1247 44.3039 22.7371 44.6109 24.3852 44.7096C24.4471 44.7138 24.5096 44.7173 24.5721 44.7204C24.5721 44.7204 24.5776 44.724 24.5892 44.7301Z" fill="white"></path><path d="M16.0645 38.1877L17.4072 38.8499C17.4686 39.2333 17.5412 39.5868 17.6254 39.8919C18.2426 42.1311 21.3272 43.9001 23.3285 43.565C23.7013 44.0449 24.1034 44.4579 24.4923 44.6605C24.4923 44.6605 21.5706 44.4589 19.7667 43.3239C17.9624 42.1894 16.6026 40.5207 16.1582 38.6069C16.127 38.4733 16.0956 38.3331 16.0645 38.1877Z" fill="white"></path><path d="M20.0964 20.1168C19.9362 20.1787 19.8611 20.1685 19.843 20.0954C19.8202 20.0033 19.9139 19.9593 20.3981 19.6901C20.8829 19.421 21.1151 19.3365 21.5091 19.3569C21.9026 19.3774 22.5037 19.668 22.941 20.2495C23.1375 20.5104 23.3658 20.712 23.5648 20.8845L23.4721 20.8865C23.453 20.868 23.3875 20.8528 23.2222 20.8491C23.2061 20.8368 23.1905 20.8261 23.1753 20.8154C23.0035 20.6971 22.678 20.6946 22.4004 20.8845C22.1229 21.0743 21.4537 21.4688 20.9917 21.2432C20.6657 21.084 20.3648 20.7857 20.1931 20.5886C20.1215 20.5063 20.0721 20.4413 20.0525 20.4127C19.9991 20.3308 20.0228 20.2391 20.1069 20.2386C20.1261 20.2386 20.1482 20.2433 20.1734 20.2535C20.31 20.3104 20.7563 20.9024 21.3776 20.864C21.9983 20.8256 22.4553 20.2515 22.4553 20.2305C22.4553 20.2101 21.9434 19.8206 21.5192 19.7408C21.0945 19.661 20.5039 19.9229 20.2414 20.0514C20.187 20.0784 20.1386 20.1 20.0964 20.1168Z" fill="white"></path><path d="M23.5671 20.8841C23.7928 21.0791 23.9819 21.2368 24.0474 21.3989C24.0528 21.4117 24.0574 21.4256 24.0609 21.4389C24.1487 21.7602 24.071 24.5664 24.071 24.5664C23.208 24.3766 22.6295 25.4717 22.5363 25.8744C22.4431 26.2771 22.7534 26.4947 22.7736 26.5386C22.7937 26.5822 22.7333 26.6563 22.2889 26.8718C22.2184 26.9061 22.1458 26.9475 22.0742 26.9936C22.0904 26.7725 22.1323 26.2746 22.2027 25.9082C22.2959 25.4236 22.3595 24.9978 22.7384 24.4391C23.1167 23.8798 23.4498 23.562 23.5813 23.0645C23.7123 22.5672 23.6448 21.2572 23.6367 21.2239C23.6297 21.1937 23.3954 20.9773 23.2241 20.8499C23.3898 20.8529 23.4553 20.8688 23.4739 20.8872L23.5671 20.8841Z" fill="white"></path><path d="M23.6365 21.2233C23.6446 21.257 23.712 22.567 23.581 23.0638C23.45 23.5612 23.1165 23.8791 22.7381 24.4384C22.3592 24.9977 22.2957 25.4229 22.2025 25.9074C22.132 26.2739 22.0901 26.7718 22.0741 26.9929C21.6946 27.2344 21.3345 27.5916 21.3345 27.5916C21.3359 27.5015 21.3248 27.415 21.3011 27.3244C21.3742 27.2226 21.4704 27.041 21.4356 26.8255C21.3813 26.4904 21.1928 25.4715 20.298 23.7558C19.4027 22.0394 18.918 20.9454 18.918 20.9454C18.918 20.9454 20.1568 21.4274 20.7257 21.6735C21.2946 21.9202 21.7052 21.7932 22.1431 21.4479C22.5804 21.1024 22.8051 20.8394 23.2248 20.8481C23.3951 20.9761 23.6294 21.1924 23.6365 21.2233Z" fill="white"></path><path d="M19.5678 43.7933C19.5673 43.7938 19.5682 43.7943 19.5678 43.7933C17.8844 42.9924 16.587 41.7664 15.7929 40.4287C15.7608 40.3755 15.7301 40.3217 15.7002 40.268C15.2191 39.4083 14.8301 38.3941 14.5273 37.429L16.065 38.1879C16.0963 38.3332 16.1275 38.474 16.1582 38.607C16.6027 40.5213 17.9626 42.1895 19.7669 43.324C21.5706 44.4591 24.4924 44.6607 24.4924 44.6607L24.574 44.72C24.5116 44.717 24.4491 44.7133 24.3871 44.7093C22.7385 44.611 21.1262 44.3039 19.5678 43.7933Z" fill="white"></path><path d="M22.7876 4.44119L22.2788 5.20008C22.1366 5.22361 21.9946 5.24971 21.8535 5.27785L22.5327 4.26465L22.7876 4.44119Z" fill="white"></path><path d="M22.2785 5.20044L20.2582 8.21447C19.9467 8.44117 19.6611 8.68629 19.3965 8.94368L21.8539 5.27822C21.9954 5.25008 22.1365 5.22398 22.2785 5.20044Z" fill="white"></path><path d="M30.2173 35.3214C30.2157 35.2983 30.1769 34.4837 30.1246 33.5129C30.0701 32.5284 29.9492 31.7424 29.3703 30.8464C29.3381 30.7963 29.3048 30.7466 29.27 30.698C29.1596 30.8335 28.8584 31.1064 28.223 31.1268C27.3877 31.1534 26.5905 30.7415 26.5664 30.7292C26.6097 30.9103 26.783 31.2563 27.3983 31.8177C28.1354 32.4895 28.6322 33.0836 29.0811 33.6521C29.1456 33.734 29.2096 33.8153 29.2726 33.8962C29.3567 34.0042 29.4398 34.1112 29.5239 34.2177C29.7174 34.4627 29.8761 34.7063 30.0027 34.9223C30.0888 35.0712 30.1604 35.2067 30.2173 35.3214Z" fill="white"></path><path d="M22.9317 31.1268C22.2963 31.1064 21.995 30.8335 21.8847 30.698C21.8499 30.7466 21.8167 30.7963 21.7844 30.8464C21.2055 31.7424 21.084 32.5284 21.0302 33.5129C20.9773 34.4837 20.9385 35.2983 20.9375 35.3214C20.9944 35.2067 21.0654 35.0712 21.1526 34.9228C21.279 34.7068 21.4378 34.4627 21.6313 34.2177C21.7154 34.1112 21.7986 34.0037 21.8827 33.8962C21.9457 33.8153 22.0097 33.734 22.0741 33.6521C22.5231 33.0836 23.0199 32.4895 23.757 31.8177C24.3723 31.2568 24.5455 30.9103 24.5889 30.7292C24.5642 30.742 23.7671 31.1539 22.9317 31.1268Z" fill="white"></path><path d="M21.9064 40.722L21.772 41.0039L21.7674 41.0019C21.7522 40.9717 21.7447 40.9558 21.7447 40.9558C21.7447 40.9558 21.651 40.7874 21.5059 40.5244L21.9064 40.722Z" fill="white"></path><path d="M21.5054 40.5246C21.6504 40.7876 21.7441 40.956 21.7441 40.956C21.7441 40.956 21.7517 40.9717 21.7668 41.0019L17.406 38.8507C17.3864 38.7284 17.3671 38.6026 17.3496 38.4746L21.5054 40.5246Z" fill="white"></path><path d="M23.3544 26.8076C23.3544 26.8076 24.1524 27.2789 24.2331 27.3408C24.3141 27.4027 24.3948 27.505 24.1121 27.6534C23.8294 27.8024 21.4059 29.4736 20.7343 30.5918C20.5827 30.8445 20.4406 31.1091 20.3126 31.3829C19.8742 32.3218 19.6037 33.3683 19.6893 34.3964C19.8002 35.7242 20.2194 37.2471 20.4667 37.8986C20.5898 38.2225 20.7378 38.4892 20.9374 38.8412L20.9379 38.8427C21.14 39.1988 21.3944 39.6421 21.7295 40.319C21.7974 40.4557 21.8634 40.5861 21.9284 40.7104L21.9078 40.7218L21.5077 40.5242C21.2195 40.0008 20.7293 39.1012 20.3766 38.4016C19.8465 37.3506 19.0081 36.1096 18.6298 34.6016C18.2508 33.0946 18.1451 30.3865 18.6298 29.079C19.1145 27.7712 20.498 26.8945 20.6693 26.9509C20.8406 27.0071 19.846 29.6118 19.846 29.6118C19.846 29.6118 20.1544 29.0171 21.1439 28.1197C22.1325 27.2226 23.3544 26.8076 23.3544 26.8076Z" fill="white"></path><path d="M22.1436 21.4488C22.5809 21.1035 22.8056 20.8404 23.2253 20.8491C23.2093 20.8368 23.1936 20.8261 23.1784 20.8154C23.0067 20.6971 22.6812 20.6946 22.4035 20.8845C22.126 21.0743 21.4568 21.4688 20.9948 21.2432C20.6688 21.084 20.368 20.7857 20.1962 20.5886L18.5214 20.7458C18.5163 20.7724 18.5124 20.7979 18.5083 20.8226C18.4705 21.0691 18.4685 21.3358 18.4916 21.6008C18.5416 22.1878 18.7118 22.7686 18.8816 23.1151C19.1291 23.6176 20.0833 25.2274 20.5933 26.038C20.7106 26.2242 20.8134 26.3864 20.9026 26.5298C21.1132 26.8696 21.2442 27.1064 21.3021 27.3249C21.3752 27.2231 21.4715 27.0415 21.4367 26.826C21.3823 26.4909 21.1938 25.472 20.299 23.7562C19.4036 22.0399 18.9189 20.9458 18.9189 20.9458C18.9189 20.9458 20.1579 21.4279 20.7268 21.6741C21.2951 21.9206 21.7058 21.7943 22.1436 21.4488Z" fill="white"></path><path d="M30.4221 30.5919C29.7505 29.4738 27.3271 27.8025 27.0443 27.6535C26.7617 27.5051 26.8423 27.4028 26.9235 27.3409C27.004 27.279 27.8022 26.8076 27.8022 26.8076C27.5094 26.7309 27.1053 26.8589 26.8176 27.1306C26.5299 27.4023 26.0554 27.807 25.6109 27.8178C25.6004 27.8183 25.5893 27.8178 25.5782 27.8173C25.5671 27.8178 25.556 27.8183 25.5454 27.8178C25.101 27.8075 24.6265 27.4028 24.3387 27.1306C24.0505 26.8589 23.647 26.7309 23.3541 26.8076C23.3541 26.8076 24.1523 27.279 24.2328 27.3409C24.314 27.4028 24.3947 27.5051 24.112 27.6535C23.8293 27.8025 21.4058 29.4738 20.7342 30.5919C20.5826 30.8447 20.4404 31.1092 20.3125 31.383L20.3231 31.3881C20.7175 30.5458 21.6558 29.9092 22.0795 29.6119C22.5909 29.2527 23.459 28.6238 24.2304 28.6238C25.0013 28.6238 25.5787 29.0546 25.5787 29.0546C25.5787 29.0546 26.1565 28.6238 26.927 28.6238C27.6978 28.6238 28.5664 29.2527 29.0779 29.6119C29.5017 29.9092 30.4393 30.5458 30.8343 31.3881L30.8448 31.383C30.716 31.1092 30.5738 30.8447 30.4221 30.5919Z" fill="white"></path><path d="M20.1572 31.9401C20.009 33.0541 20.32 37.7501 20.8521 38.6053C20.8767 38.6815 20.9049 38.7598 20.9377 38.8411C20.7376 38.4886 20.5899 38.2219 20.467 37.8986C20.2202 37.2472 19.801 35.7243 19.6896 34.3963C19.604 33.3684 19.8745 32.3213 20.3129 31.3828L20.3235 31.388C20.2413 31.564 20.1824 31.7482 20.1572 31.9401Z" fill="white"></path><path d="M20.2592 8.21411L19.3457 9.5758L18.4434 10.0159C18.5975 9.81784 18.7587 9.62287 18.9296 9.43201L19.1376 9.33068L19.3976 8.94332C19.6621 8.68591 19.9478 8.4408 20.2592 8.21411Z" fill="white"></path><path d="M17.855 15.0236C19.4654 14.3522 20.0039 14.0339 20.0206 14.0242C19.9924 14.0621 18.1901 16.5173 17.7593 19.2847C17.6702 19.8563 17.6203 20.4019 17.5971 20.9268C17.2142 21.0496 16.7587 21.111 16.3184 21.1376C16.3208 20.7728 16.3189 20.585 16.3189 20.585C16.3189 20.585 16.3995 18.6425 16.8575 17.1519C17.1804 16.1003 17.5739 15.3853 17.7775 15.0558C17.8032 15.0451 17.8289 15.0343 17.855 15.0236Z" fill="white"></path><path d="M19.3958 8.9436L19.1358 9.33098L18.9277 9.43229C19.0764 9.26548 19.232 9.10173 19.3958 8.9436Z" fill="white"></path><path d="M15.9432 15.5571C16.4853 15.4687 17.1317 15.3171 17.7788 15.0562C17.5752 15.3857 17.1817 16.1007 16.8587 17.1522C16.4007 18.6429 16.32 20.5854 16.32 20.5854C16.32 20.5854 16.3116 20.7977 16.2939 21.1395C15.6817 21.1754 15.1033 21.1447 14.7949 21.1206C15.0787 18.2764 15.7694 16.078 15.9432 15.5571Z" fill="white"></path><path d="M17.5972 20.9268C17.5069 22.965 17.8199 24.6921 17.8199 26.4124C17.8199 28.5766 16.9008 32.6375 12.7305 33.355C12.7305 33.355 13.0131 33.0781 13.6294 32.5177C14.2456 31.9569 15.2079 30.299 15.6185 28.6175C16.0292 26.9355 16.1702 26.0327 16.2514 23.8861C16.2993 22.6052 16.3143 21.6775 16.3184 21.1376C16.7582 21.1111 17.2138 21.0502 17.5972 20.9268Z" fill="white"></path><path d="M17.4083 38.8501L16.0655 38.1879C16.0388 38.062 16.0111 37.9326 15.9844 37.7996L17.3519 38.474C17.3695 38.6019 17.3887 38.7277 17.4083 38.8501Z" fill="white"></path><path d="M17.3506 38.4741L15.9832 37.7997C15.6653 36.2317 15.3609 34.2652 15.2617 33.6086C16.1485 33.1865 17.0322 32.5698 17.0322 32.5698C17.0322 32.5698 17.005 35.9877 17.3506 38.4741Z" fill="white"></path><path d="M16.0631 38.1876L14.5254 37.4287C14.4815 37.2911 14.4397 37.154 14.4004 37.0188L15.9819 37.7992C16.0091 37.9323 16.0364 38.0618 16.0631 38.1876Z" fill="white"></path><path d="M14.5599 15.6803C14.5599 15.6803 15.1358 15.6889 15.9434 15.5569C15.7697 16.0778 15.0784 18.2762 14.7953 21.1203C14.7941 21.1306 14.7931 21.1413 14.7921 21.1515C14.4688 24.4332 13.8933 26.4643 13.4691 27.8791C13.0715 29.2066 11.3937 32.4115 8.77824 32.9047C8.68351 32.8653 8.58376 32.8383 8.48047 32.8244V32.3326C9.28613 31.5886 11.1252 29.7013 12.0553 27.2227C12.5364 25.9397 12.8821 24.5949 13.1511 23.3043L13.4282 23.7409L14.0344 23.1462L13.3718 22.1786C13.6524 20.6506 13.844 19.2547 14.055 18.1984C14.4894 16.0236 14.5599 15.6803 14.5599 15.6803Z" fill="white"></path><path d="M15.7007 40.268C15.7306 40.3216 15.7618 40.3755 15.7935 40.4286C15.5692 40.594 15.0962 40.9378 15.0664 40.9239C15.003 40.7597 14.9611 40.6507 14.9611 40.6507C14.6437 39.8596 14.1434 38.3699 13.7051 37.0242L14.5274 37.4294C14.8301 38.3941 15.2191 39.4083 15.7007 40.268Z" fill="white"></path><path d="M14.7962 21.1206C15.1046 21.1441 15.683 21.1753 16.2951 21.1394C16.2649 21.7484 16.2075 22.7688 16.1259 23.7365C15.9985 25.2476 15.7525 27.7258 14.8134 30.1053C13.9367 32.3262 11.625 33.6986 9.48971 33.754C9.46352 33.6393 9.4212 33.5272 9.36023 33.4202C9.22671 33.1849 9.01963 33.0063 8.7793 32.9055C11.3948 32.4122 13.0726 29.2072 13.4701 27.8799C13.8943 26.465 14.4697 24.434 14.7933 21.1523C14.7938 21.1416 14.7952 21.1308 14.7962 21.1206Z" fill="white"></path><path d="M15.2618 33.6084C15.3611 34.2649 15.6655 36.2315 15.9834 37.7994L14.4017 37.0191C14.0234 35.7351 13.7992 34.5939 13.7109 34.1032C14.0823 34.0341 14.5212 33.9257 14.9328 33.7553C15.0412 33.7102 15.1514 33.6606 15.2618 33.6084Z" fill="white"></path><path d="M14.8156 14.8896V15.2028H14.3809C14.4564 15.1332 14.5678 15.0283 14.7074 14.8896H14.8156Z" fill="white"></path><path d="M9.5713 14.8896H14.7065C14.5674 15.0283 14.456 15.1327 14.38 15.2028H9.49219C9.53351 15.101 9.55971 14.9956 9.5713 14.8896Z" fill="white"></path><path d="M14.5272 37.4284L13.7049 37.0232C13.6595 36.883 13.6147 36.7443 13.5703 36.6086L14.4017 37.0185C14.4421 37.1542 14.4838 37.2907 14.5272 37.4284Z" fill="white"></path><path d="M16.5168 14.7551C15.7948 15.0109 15.0427 15.2049 14.2656 15.3062C14.2656 15.3062 14.306 15.2713 14.3806 15.2028H14.8153V14.8896H14.7071C15.2679 14.3329 16.283 13.2332 17.2853 11.6853C17.6425 11.1341 18.0153 10.5651 18.4431 10.016L19.3454 9.57594L20.2589 8.21425C21.4783 7.32488 23.0956 6.7016 25.4143 6.65503V7.96965L25.3412 7.9722C25.2647 7.97732 25.1886 7.98654 25.1125 7.99318C25.0743 7.99727 25.036 8.00034 24.9982 8.00547L24.8842 8.02337C24.8087 8.03617 24.7321 8.04487 24.6575 8.06124L24.4333 8.11088C24.3582 8.12675 24.2852 8.15028 24.2111 8.16921L24.1007 8.1994C24.0639 8.21015 24.0283 8.22295 23.9915 8.23472C23.9194 8.25825 23.8463 8.28231 23.7748 8.3079C23.4891 8.41383 23.211 8.53868 22.9404 8.67531C22.6703 8.8145 22.4103 8.97057 22.1574 9.13739C21.653 9.47257 21.183 9.85432 20.7466 10.2693C20.3129 10.6879 19.9027 11.1316 19.5505 11.6197C19.9616 11.1838 20.4 10.778 20.8595 10.4013C21.0883 10.212 21.3226 10.0303 21.5644 9.85994C21.8058 9.69004 22.0496 9.52425 22.3026 9.37329C22.4295 9.2996 22.5555 9.22388 22.6855 9.15684C22.8135 9.08622 22.945 9.02123 23.0755 8.95624C23.3395 8.83189 23.6086 8.72034 23.8836 8.62721C24.1593 8.53817 24.4379 8.45834 24.721 8.40767C24.7915 8.39284 24.8631 8.38465 24.9342 8.37339L25.0405 8.35753C25.0762 8.35241 25.112 8.35036 25.1478 8.34679C25.2193 8.34064 25.2904 8.33297 25.3619 8.32785L25.4138 8.32631V9.54267C25.0631 9.55496 23.472 9.66037 22.1424 10.5671C20.6374 11.5926 19.9964 12.244 19.022 13.0182C18.0475 13.7936 17.2832 14.3477 16.5168 14.7551Z" fill="white"></path><path d="M13.3711 22.178L14.0336 23.1457L13.4275 23.7403L13.1504 23.3038C13.2305 22.9231 13.3031 22.5464 13.3711 22.178Z" fill="white"></path><path d="M13.7114 34.1033C13.8 34.594 14.0242 35.7346 14.4022 37.0191L13.5708 36.6093C13.1476 35.2972 12.8125 34.218 12.8125 34.218C12.8125 34.218 13.1964 34.1985 13.7114 34.1033Z" fill="white"></path><path d="M13.7052 37.0237L9.23047 34.8155C9.29848 34.7347 9.35541 34.6456 9.40026 34.551L13.5711 36.6086C13.6149 36.7448 13.6598 36.8834 13.7052 37.0237Z" fill="white"></path><path d="M10.6003 10.2499C11.0583 10.1844 11.6625 10.1378 12.2812 10.1997C12.0892 10.3793 11.9003 10.5636 11.7144 10.7524C10.7707 11.7108 9.93325 12.7522 9.20822 13.8672C9.14171 13.8033 9.06714 13.7465 8.98501 13.6983C8.80413 13.592 8.59805 13.5361 8.38946 13.5361C8.31086 13.5361 8.23377 13.5443 8.1582 13.5591C8.33404 13.2552 8.57236 12.8985 8.83386 12.5311C9.47627 11.6295 10.2592 10.6644 10.6003 10.2499Z" fill="white"></path><path d="M11.3438 38.5291C12.6643 39.8953 15.0642 40.9239 15.0642 40.9239C15.1619 41.1783 15.3105 41.5645 15.433 41.8803C14.0857 41.0528 12.8407 40.0606 11.7121 38.9138C11.5876 38.787 11.4652 38.6585 11.3438 38.5291Z" fill="white"></path><path d="M10.1881 10.3184C10.305 10.2953 10.444 10.2713 10.5992 10.2493C10.2581 10.6638 9.47514 11.6289 8.83274 12.5305L8.52539 12.3913C9.0368 11.6652 9.59255 10.9728 10.1881 10.3184Z" fill="white"></path><path d="M8.9844 13.698C9.06652 13.746 9.1411 13.8028 9.2076 13.8667C9.27663 13.9323 9.33658 14.0064 9.38748 14.0853C9.44391 14.1733 9.48825 14.2685 9.52049 14.3678C9.57441 14.5346 9.59254 14.7127 9.57188 14.8893C9.55979 14.9951 9.5341 15.1006 9.49328 15.2024C9.47312 15.2536 9.44895 15.3037 9.42124 15.3523C9.31845 15.533 9.17334 15.6804 9.00203 15.7842L8.8539 15.5565L8.47047 15.9254L8.48811 15.9526C8.48559 15.9531 8.48307 15.9536 8.48004 15.9536C8.44982 15.9561 8.41857 15.9576 8.38734 15.9576C8.31529 15.9576 8.24222 15.9511 8.17169 15.9377C8.12937 15.9296 8.08704 15.9192 8.04624 15.907C7.95756 15.8805 7.87291 15.8431 7.7923 15.7955C7.51669 15.6338 7.31868 15.3723 7.23655 15.0602C7.18617 14.8698 7.18213 14.6738 7.22345 14.4864C7.24916 14.3677 7.29399 14.2506 7.35546 14.1421C7.35546 14.1416 7.35546 14.1426 7.35546 14.1421C7.41642 14.0346 7.49251 13.9385 7.58018 13.857C7.7414 13.7061 7.94194 13.6022 8.15859 13.5583C8.23366 13.5434 8.31125 13.5352 8.38986 13.5352C8.59694 13.5357 8.80301 13.5915 8.9844 13.698ZM8.01197 15.4085C8.03918 15.4245 8.06689 15.4387 8.09511 15.4501C8.1072 15.4552 8.11878 15.4603 8.13088 15.4644C8.14398 15.4696 8.15708 15.4741 8.17118 15.4781C8.17169 15.4787 8.1722 15.4787 8.1727 15.4781C8.18479 15.4828 8.19789 15.4859 8.21049 15.489C8.2246 15.4931 8.2392 15.4961 8.25382 15.4981C8.26491 15.5003 8.27599 15.5023 8.28708 15.5033C8.29464 15.5048 8.30219 15.5053 8.30975 15.5058C8.31478 15.5068 8.32083 15.5073 8.32638 15.5073C8.33494 15.5083 8.344 15.5088 8.35258 15.5088C8.36467 15.51 8.37726 15.51 8.38935 15.51C8.40498 15.51 8.42059 15.5095 8.43621 15.5083C8.45083 15.5073 8.46543 15.5063 8.48004 15.5043C8.49164 15.5028 8.50322 15.5013 8.51481 15.4992C8.51581 15.4992 8.51632 15.4992 8.51784 15.4986C8.5264 15.4971 8.53497 15.4956 8.54404 15.4936C8.55109 15.492 8.55864 15.491 8.5662 15.4884C8.56973 15.4879 8.57326 15.4869 8.57729 15.4859C8.58082 15.4848 8.58435 15.4843 8.58837 15.4833C8.62666 15.4726 8.66395 15.4587 8.70073 15.4419C8.71031 15.4372 8.71988 15.4332 8.72945 15.4275C8.75212 15.4163 8.7748 15.4035 8.79646 15.3886C8.80603 15.383 8.8156 15.3763 8.82468 15.3693C8.82619 15.3681 8.82821 15.3671 8.82972 15.3656C8.83829 15.36 8.84584 15.3539 8.8534 15.3472C8.85794 15.3441 8.86196 15.3411 8.86599 15.3369C8.87254 15.3319 8.87859 15.3267 8.88514 15.3211C8.90982 15.2992 8.93351 15.2755 8.95467 15.25C8.96222 15.2418 8.96877 15.2341 8.97483 15.2254C8.98138 15.2177 8.98692 15.2101 8.99246 15.2024C9.00959 15.1794 9.02571 15.1543 9.04032 15.1288C9.04687 15.1164 9.05342 15.1046 9.05948 15.0924C9.06299 15.0867 9.06552 15.0806 9.06804 15.0744C9.07913 15.0515 9.0887 15.0283 9.09675 15.0048C9.09927 14.9971 9.10229 14.9891 9.10482 14.9813C9.10884 14.9706 9.11188 14.9594 9.11439 14.948C9.1159 14.9419 9.11792 14.9357 9.11943 14.9292C9.12145 14.922 9.12346 14.9148 9.12447 14.9071C9.12598 14.9015 9.12699 14.8953 9.128 14.8893C9.13102 14.8769 9.13303 14.8636 9.13455 14.8509C9.13606 14.8396 9.13707 14.8289 9.13808 14.8175C9.13958 14.8058 9.14009 14.7945 9.14059 14.7833C9.14159 14.771 9.14159 14.7588 9.14159 14.7459C9.14159 14.7301 9.1411 14.7137 9.14009 14.6978C9.13958 14.683 9.13857 14.6687 9.13606 14.6538C9.13504 14.6456 9.13455 14.6379 9.13253 14.6298C9.13153 14.6206 9.13001 14.6109 9.128 14.6011C9.12598 14.5889 9.12295 14.576 9.11943 14.5637C9.11943 14.5632 9.11943 14.5627 9.11892 14.5622C9.11742 14.5545 9.1149 14.5463 9.11288 14.5392C9.11087 14.5305 9.10784 14.5213 9.10482 14.5126C9.09978 14.4947 9.09272 14.4767 9.08568 14.4594C9.08063 14.4465 9.0756 14.4338 9.07005 14.422C9.06149 14.4031 9.05191 14.3846 9.04133 14.3667C9.03579 14.356 9.02924 14.3452 9.02219 14.335C9.01111 14.3165 8.99901 14.2987 8.9854 14.2818C8.97836 14.2726 8.9708 14.2629 8.96273 14.2536C8.9577 14.2481 8.95316 14.2419 8.94812 14.2367C8.94056 14.2281 8.933 14.2199 8.92545 14.2117C8.91436 14.2 8.90278 14.1887 8.89068 14.178C8.88917 14.1763 8.88766 14.1753 8.88564 14.1733C8.87658 14.1651 8.8665 14.1569 8.85642 14.1493C8.83979 14.1349 8.82166 14.1221 8.80301 14.1094C8.79092 14.1007 8.77731 14.093 8.76421 14.0853C8.51027 13.9358 8.20596 13.9548 7.97569 14.1079C7.87997 14.1713 7.79733 14.2578 7.73637 14.3652C7.52879 14.7306 7.65223 15.1972 8.01197 15.4085Z" fill="white"></path><path d="M8.77767 32.9054C9.01801 33.0062 9.22508 33.1847 9.3586 33.4202C9.41958 33.5272 9.4619 33.6392 9.4881 33.7538C9.54906 34.0245 9.5153 34.3059 9.39942 34.5511C9.35507 34.6452 9.29815 34.7342 9.22962 34.8156C9.14447 34.9164 9.04169 35.0044 8.92178 35.0745C8.88096 35.0986 8.83863 35.1201 8.7953 35.1386C8.64717 35.2035 8.48745 35.2367 8.32571 35.2367C8.12166 35.2367 7.92566 35.1835 7.75233 35.0874C7.63544 35.022 7.52812 34.9358 7.43794 34.8345C7.38302 34.7726 7.33415 34.705 7.29233 34.6309C7.26311 34.5797 7.23792 34.5271 7.21725 34.4733C7.16384 34.3377 7.13563 34.1949 7.13311 34.0501C7.1306 33.9376 7.14419 33.8234 7.17342 33.7113C7.25202 33.4135 7.43441 33.1627 7.69037 32.9995C7.70297 32.9913 7.71607 32.9836 7.72917 32.976C7.86571 32.8962 8.01636 32.8439 8.17154 32.8234C8.18464 32.8219 8.19825 32.8204 8.21184 32.8189C8.24913 32.8154 8.28692 32.8137 8.32522 32.8137C8.37711 32.8137 8.42901 32.8174 8.4804 32.824C8.58268 32.8384 8.68295 32.866 8.77767 32.9054ZM7.87881 33.4114C7.8783 33.4114 7.8783 33.4114 7.8778 33.4125C7.86571 33.4212 7.85462 33.4299 7.84303 33.4401C7.83144 33.4493 7.82087 33.4591 7.81028 33.4693C7.80877 33.4703 7.80777 33.4713 7.80625 33.4733C7.79769 33.481 7.78962 33.4893 7.78206 33.4975C7.77703 33.5025 7.773 33.5072 7.76896 33.5122C7.76192 33.5194 7.75537 33.5277 7.74931 33.5352C7.74075 33.5456 7.73269 33.5558 7.72463 33.5666C7.71505 33.5793 7.70548 33.5931 7.69641 33.6075C7.69641 33.6075 7.69591 33.608 7.6954 33.6085C7.68684 33.6218 7.67878 33.6355 7.67123 33.6494C7.66265 33.6632 7.6556 33.6776 7.64854 33.6924C7.64805 33.6939 7.64704 33.6949 7.64704 33.6965C7.64049 33.7103 7.63444 33.7241 7.62889 33.7385C7.62285 33.7538 7.6168 33.7687 7.61226 33.7845C7.60774 33.7978 7.6037 33.8111 7.60018 33.8254C7.59867 33.8301 7.59816 33.8341 7.59715 33.8383C7.59313 33.8515 7.59011 33.8648 7.58809 33.8792C7.58456 33.895 7.58204 33.9119 7.58003 33.9283C7.56793 34.025 7.57348 34.1242 7.59867 34.221C7.6032 34.2369 7.60774 34.2532 7.61277 34.2691C7.62084 34.2931 7.6299 34.3168 7.63998 34.3397C7.65006 34.3627 7.66215 34.3864 7.67474 34.4088C7.81381 34.6539 8.06725 34.7911 8.32672 34.7906C8.33932 34.7906 8.35292 34.7901 8.36552 34.7896C8.37257 34.789 8.38014 34.7885 8.38719 34.788C8.4023 34.787 8.41692 34.7854 8.43153 34.7829C8.44362 34.7813 8.45571 34.7793 8.4678 34.7768C8.46931 34.7768 8.47032 34.7768 8.47133 34.7757C8.48644 34.7731 8.50106 34.7696 8.51567 34.7659C8.51769 34.7654 8.52021 34.7649 8.52171 34.7644C8.53381 34.7614 8.54489 34.7578 8.55648 34.7537C8.56101 34.7527 8.56505 34.7512 8.56908 34.7496C8.58319 34.7445 8.59729 34.7394 8.6109 34.7337C8.62601 34.7277 8.64062 34.721 8.65523 34.7133C8.65624 34.7133 8.65675 34.7128 8.65725 34.7122C8.67236 34.705 8.68698 34.697 8.70108 34.6888C8.71368 34.681 8.72678 34.6728 8.73888 34.6651C8.7429 34.6626 8.74693 34.6601 8.75046 34.6576C8.76255 34.6488 8.77364 34.6406 8.78473 34.6319C8.78522 34.6314 8.78623 34.6309 8.78623 34.6304C8.7943 34.6242 8.80185 34.6176 8.80992 34.6109V34.6089C8.81949 34.6012 8.82906 34.593 8.83813 34.5833C8.84015 34.5818 8.84267 34.5797 8.84468 34.5777C8.85275 34.5705 8.8603 34.5623 8.86735 34.5546C8.89053 34.5301 8.91219 34.504 8.93135 34.4774C8.9379 34.4687 8.94344 34.4605 8.94948 34.4513C8.95301 34.4461 8.95603 34.4416 8.95855 34.4365C8.96611 34.4251 8.97266 34.4139 8.9787 34.4026C8.98525 34.3914 8.9913 34.3797 8.99684 34.3684C8.99886 34.3642 9.00138 34.3602 9.00289 34.356C9.00389 34.354 9.0044 34.352 9.00541 34.35C9.01095 34.3377 9.01649 34.3258 9.02103 34.3131C9.02707 34.2983 9.03261 34.2834 9.03715 34.2686C9.04118 34.2574 9.04471 34.2455 9.04773 34.2343C9.05076 34.223 9.05327 34.2123 9.0563 34.201C9.05781 34.1959 9.05881 34.1913 9.05932 34.1863C9.06083 34.1786 9.06285 34.1709 9.06386 34.1637C9.06536 34.1549 9.06688 34.1469 9.0684 34.1381C9.0699 34.1304 9.07041 34.1227 9.07142 34.115C9.07645 34.0716 9.07797 34.0281 9.07544 33.984C9.07495 33.9733 9.07444 33.9626 9.07343 33.9523C9.07343 33.9498 9.07292 33.9473 9.07242 33.9441C9.07191 33.9365 9.07091 33.9293 9.0699 33.9216C9.0684 33.9074 9.06587 33.893 9.06285 33.8787C9.06033 33.8633 9.0568 33.8485 9.05327 33.8341C9.04975 33.8198 9.04571 33.8061 9.04118 33.7927C9.03816 33.7829 9.03514 33.7732 9.03111 33.7635C9.0306 33.7605 9.02959 33.7579 9.02808 33.7548C9.02456 33.7445 9.02052 33.7348 9.01599 33.7246C9.01599 33.7241 9.01599 33.7236 9.01498 33.7231C9.01044 33.7113 9.00541 33.6996 8.99937 33.6878C8.99231 33.6724 8.98424 33.6576 8.97619 33.6427C8.94646 33.5906 8.9117 33.5429 8.87189 33.501C8.86836 33.497 8.86484 33.4928 8.86131 33.4893C8.85778 33.4851 8.85376 33.4816 8.84972 33.4775C8.83762 33.4651 8.82503 33.4539 8.81243 33.4432C8.79984 33.4319 8.78674 33.4212 8.77313 33.4114C8.76003 33.4012 8.74643 33.392 8.73282 33.3828C8.71923 33.3736 8.70461 33.3648 8.69 33.3568C8.68848 33.3562 8.68749 33.3546 8.68597 33.3546C8.67942 33.3506 8.67186 33.347 8.6648 33.3434C8.65624 33.3388 8.64819 33.3346 8.63911 33.3311C8.62854 33.3261 8.61846 33.3214 8.60787 33.3173C8.59276 33.3112 8.57815 33.305 8.56253 33.3004C8.56152 33.2999 8.56101 33.2999 8.56052 33.2994C8.54892 33.2952 8.53734 33.2917 8.52524 33.2887C8.51869 33.2872 8.51264 33.285 8.50609 33.2835C8.49703 33.281 8.48745 33.2789 8.47888 33.2774C8.46831 33.2748 8.45722 33.2728 8.44664 33.2717C8.44311 33.2702 8.43959 33.2702 8.43606 33.2702C8.428 33.2687 8.42045 33.2677 8.41238 33.2667C8.39928 33.265 8.38618 33.2635 8.37257 33.263C8.35696 33.2615 8.34083 33.2615 8.32471 33.2615C8.3106 33.2615 8.29649 33.262 8.28289 33.263C8.27483 33.2635 8.26728 33.264 8.25972 33.2645C8.25317 33.265 8.24712 33.2657 8.24057 33.2662C8.232 33.2672 8.22243 33.2682 8.21387 33.2702C8.20933 33.2702 8.20529 33.2707 8.20077 33.2722C8.19119 33.2733 8.18162 33.2748 8.17205 33.2774C8.17154 33.2774 8.17104 33.2774 8.17053 33.2779C8.16096 33.2794 8.15139 33.2815 8.14181 33.2845C8.13325 33.2861 8.12419 33.2887 8.11561 33.2917C8.1131 33.2917 8.11058 33.2927 8.10805 33.2937C8.1 33.2952 8.09244 33.2984 8.08538 33.3009C8.06623 33.3071 8.0481 33.3142 8.02996 33.3224C8.01787 33.3276 8.00628 33.3326 7.99469 33.3388C7.97907 33.346 7.96396 33.3546 7.94833 33.3633C7.93624 33.3705 7.92365 33.3782 7.91205 33.3864C7.90098 33.3935 7.88989 33.4012 7.87931 33.4094C7.87981 33.4099 7.87981 33.4104 7.87881 33.4114Z" fill="white"></path><path d="M9.38867 14.0857L18.9306 9.43213C18.7597 9.623 18.5985 9.81797 18.4444 10.016L9.52168 14.3676C9.48944 14.2695 9.4451 14.1737 9.38867 14.0857Z" fill="white"></path><path d="M8.85412 15.5569L9.00226 15.7846C8.84757 15.8787 8.67174 15.9381 8.48834 15.9535L8.4707 15.9264L8.85412 15.5569Z" fill="white"></path><path d="M8.14549 12.2195L8.52589 12.3914C8.19083 12.8658 7.87492 13.355 7.57967 13.857C7.492 13.9383 7.41642 14.0336 7.35546 14.141C7.35546 14.1405 7.35546 14.1415 7.35546 14.141C7.29398 14.2495 7.24863 14.3667 7.22344 14.4854C5.57939 17.5055 4.63669 20.9725 4.62107 24.6569C4.51022 24.5561 4.3752 24.4828 4.22656 24.445C4.26435 21.6254 4.82816 18.8903 5.90285 16.3092C6.50647 14.8594 7.25721 13.4921 8.14549 12.2195Z" fill="white"></path><path d="M8.48828 15.9531C8.67168 15.9378 8.84753 15.8789 9.0022 15.7842L9.15739 16.0232L13.3716 22.1777C13.3036 22.5461 13.231 22.9228 13.1514 23.304L8.48828 15.9531Z" fill="white"></path><path d="M8.48074 32.3328V32.8245C8.42985 32.8178 8.37744 32.8143 8.32555 32.8143C8.28776 32.8143 8.24998 32.8158 8.21219 32.8193L8.17188 32.7749V32.607C8.24041 32.5496 8.34571 32.4571 8.48074 32.3328Z" fill="white"></path><path d="M8.38752 15.9582C8.41826 15.9582 8.4495 15.9567 8.48024 15.954V32.3328C8.3457 32.4571 8.2399 32.5496 8.17188 32.6075V15.9382C8.24292 15.9515 8.31547 15.9582 8.38752 15.9582Z" fill="white"></path><path d="M8.17188 32.7749L8.21207 32.8192C8.19901 32.8209 8.18545 32.8224 8.17188 32.8239V32.7749Z" fill="white"></path><path d="M7.75195 35.0872C7.92477 35.1834 8.12128 35.2366 8.32533 35.2366C8.48707 35.2366 8.64679 35.2029 8.79492 35.1384C9.48469 36.2959 10.2903 37.3792 11.2058 38.3791C11.2094 38.3832 11.2134 38.3878 11.2174 38.3915C11.2567 38.4354 11.297 38.4784 11.3383 38.5219C11.3404 38.524 11.3429 38.5265 11.3444 38.5285C11.4653 38.658 11.5883 38.7864 11.7132 38.9134C12.8418 40.0596 14.0868 41.0523 15.4342 41.8798C15.4845 42.0093 15.5309 42.1275 15.5672 42.2196C14.9213 42.8208 12.5652 41.3711 11.1554 39.7347C10.829 39.356 10.4964 38.9414 10.1785 38.529C10.178 38.5285 10.1775 38.5275 10.177 38.5275C9.11637 37.152 8.21348 35.7899 8.21348 35.7899L7.75195 35.0872Z" fill="white"></path><path d="M10.1789 38.5273C9.01297 37.1814 8.11864 35.9267 7.43945 34.8347C7.52965 34.936 7.63646 35.0215 7.75335 35.087L8.21538 35.7895C8.21538 35.7895 9.11828 37.1517 10.1789 38.5273Z" fill="white"></path><path d="M7.58008 13.8574C7.87533 13.3549 8.19124 12.8662 8.5263 12.3918L8.83365 12.531C8.57215 12.8985 8.33383 13.2546 8.15799 13.5591C7.94184 13.6021 7.74131 13.7064 7.58008 13.8574Z" fill="white"></path><path d="M4.62109 24.6573C4.63672 20.9728 5.57891 17.5069 7.22297 14.4868C7.18215 14.674 7.18619 14.8701 7.23607 15.0604C7.31819 15.3725 7.5162 15.634 7.79181 15.7957C7.87242 15.8433 7.95758 15.8802 8.04575 15.9072C7.85529 16.2921 7.67693 16.6841 7.51117 17.0827C6.48937 19.5369 5.97141 22.1441 5.97141 24.8332C5.97141 27.5224 6.48987 30.13 7.51117 32.5837C7.56911 32.7239 7.62907 32.8626 7.69054 33.0008C7.43459 33.1635 7.25169 33.4142 7.17359 33.7126C7.14386 33.8246 7.13026 33.9383 7.13328 34.0509C6.68939 33.2659 6.01978 32.0234 5.46554 30.7405L5.46504 30.739L5.46453 30.7375C5.03122 29.2376 4.75613 27.6703 4.65939 26.0542" fill="white"></path><path d="M5.50977 30.8818C5.64429 31.3056 6.11337 32.6289 7.21881 34.4731C7.23997 34.5269 7.26516 34.5796 7.29389 34.6308C7.33571 34.7044 7.38458 34.7725 7.4395 34.8344C8.11919 35.9264 9.01352 37.1812 10.1789 38.527L10.1804 38.5285C10.4984 38.9415 10.8309 39.3555 11.1574 39.7342C12.5672 41.3706 14.9231 42.8203 15.5691 42.2191C15.5918 42.2764 15.6104 42.324 15.624 42.3577C15.7479 42.6673 15.7032 42.828 15.4245 43.0875C15.3524 43.1544 15.2592 43.1923 15.1464 43.2052C10.5613 40.5216 7.06463 36.1255 5.50977 30.8818Z" fill="white"></path><path d="M4.60039 28.2129C4.76666 28.9871 5.08863 29.8714 5.46348 30.7372C5.46348 30.7372 5.46348 30.7377 5.46399 30.7387C5.46399 30.7392 5.46399 30.7392 5.46449 30.7403C5.465 30.7424 5.46601 30.7469 5.46802 30.7531C5.46954 30.7587 5.47205 30.7669 5.47507 30.7766C5.47609 30.7796 5.47658 30.7833 5.4781 30.7868C5.48162 30.7996 5.48566 30.813 5.48968 30.8252C5.4912 30.8309 5.49321 30.8375 5.49523 30.8442C5.49674 30.8497 5.49925 30.8564 5.50077 30.8626C5.50229 30.8687 5.5048 30.8754 5.50681 30.8821C7.0622 36.1257 10.5589 40.5219 15.1444 43.2058C14.8219 43.2427 14.3413 43.0748 13.7513 42.8134C13.7507 42.8134 13.7497 42.8128 13.7492 42.8123C12.5793 42.0206 11.486 41.1097 10.4778 40.0858C8.5168 38.0942 6.97705 35.7752 5.90183 33.193C5.23574 31.5928 4.76566 29.9323 4.49609 28.2298L4.60039 28.2129Z" fill="white"></path><path d="M7.21622 34.4737C6.11078 32.6295 5.64169 31.3057 5.50716 30.8825C5.50515 30.8759 5.50263 30.8692 5.50112 30.863C5.49961 30.8569 5.49708 30.8507 5.49558 30.8447C5.49357 30.838 5.49155 30.8318 5.49004 30.8257C5.48601 30.8135 5.48197 30.8001 5.47844 30.7873C5.47694 30.7838 5.47643 30.7801 5.47542 30.7771C5.4724 30.7674 5.47039 30.7592 5.46837 30.7536C5.46686 30.7474 5.46534 30.7427 5.46484 30.7407C6.01907 32.0236 6.68869 33.2662 7.13258 34.0511C7.1346 34.1948 7.16281 34.3382 7.21622 34.4737Z" fill="white"></path><path d="M5.46441 30.7372C5.08955 29.8713 4.76708 28.9871 4.60132 28.2128L4.49702 28.2292C4.39524 27.5881 4.32169 26.9407 4.27734 26.2883C4.42296 26.2418 4.55395 26.1608 4.65977 26.054C4.75601 27.6699 5.0311 29.2379 5.46441 30.7372Z" fill="white"></path><path d="M4.62367 25.1097C4.62164 24.9905 4.62063 24.8708 4.62063 24.7511C4.62063 24.7198 4.62063 24.6886 4.62114 24.6569C4.51029 24.5561 4.37527 24.483 4.22662 24.4451C4.22512 24.5469 4.22461 24.6492 4.22461 24.7511C4.22461 24.8406 4.22512 24.9301 4.22613 25.0192C4.23116 25.444 4.2483 25.8671 4.27701 26.2883C4.42262 26.2417 4.55413 26.1608 4.65993 26.054C4.64079 25.7407 4.6287 25.4265 4.62367 25.1097Z" fill="white"></path><path d="M56.8535 32.8421V17.7853H59.2V30.72H65.6032V32.8421H56.8535ZM72.4054 33.0846C71.3316 33.0846 70.377 32.8354 69.5418 32.3368C68.7199 31.8249 68.0769 31.1377 67.6129 30.2754C67.149 29.3996 66.9169 28.4227 66.9169 27.3448C66.9169 26.2399 67.149 25.2631 67.6129 24.4143C68.0902 23.5655 68.7265 22.8985 69.522 22.4135C70.3174 21.9149 71.2188 21.6657 72.2264 21.6657C73.0351 21.6657 73.7576 21.8071 74.394 22.0901C75.0303 22.373 75.5672 22.7637 76.0047 23.2623C76.4422 23.7474 76.7737 24.3066 76.999 24.9398C77.2376 25.573 77.3569 26.2468 77.3569 26.9608C77.3569 27.136 77.3503 27.3179 77.337 27.5065C77.3237 27.6951 77.2973 27.8703 77.2575 28.032H68.6868V26.213H75.9848L74.911 27.0417C75.0436 26.3814 74.9971 25.7953 74.7718 25.2834C74.5596 24.7579 74.2283 24.347 73.7775 24.0505C73.34 23.7407 72.823 23.5857 72.2264 23.5857C71.6298 23.5857 71.0995 23.7407 70.6356 24.0505C70.1716 24.347 69.8137 24.7781 69.5617 25.344C69.3098 25.8964 69.2104 26.5701 69.2634 27.365C69.1972 28.1061 69.2966 28.7529 69.5617 29.3053C69.8401 29.8576 70.2245 30.2889 70.7151 30.5987C71.2188 30.9086 71.7889 31.0636 72.4253 31.0636C73.0749 31.0636 73.625 30.9154 74.0758 30.6189C74.5397 30.3225 74.9044 29.9385 75.1695 29.4669L76.999 30.3764C76.7868 30.8884 76.4555 31.3532 76.0047 31.7709C75.5672 32.1751 75.0369 32.4985 74.4138 32.741C73.804 32.9701 73.1346 33.0846 72.4054 33.0846ZM84.7401 33.0846C83.7061 33.0846 82.7581 32.8354 81.8965 32.3368C81.048 31.8383 80.3719 31.1579 79.8681 30.2956C79.3644 29.4332 79.1125 28.4564 79.1125 27.365C79.1125 26.2602 79.3644 25.2834 79.8681 24.4345C80.3719 23.5722 81.048 22.8985 81.8965 22.4135C82.745 21.9149 83.6928 21.6657 84.7401 21.6657C85.8007 21.6657 86.7486 21.9149 87.5838 22.4135C88.4323 22.8985 89.1017 23.5722 89.5922 24.4345C90.096 25.2834 90.3479 26.2602 90.3479 27.365C90.3479 28.4699 90.096 29.4534 89.5922 30.3158C89.0885 31.1781 88.4124 31.8585 87.5639 32.357C86.7154 32.8421 85.7742 33.0846 84.7401 33.0846ZM84.7401 30.9625C85.3765 30.9625 85.9398 30.8075 86.4304 30.4977C86.921 30.1878 87.3054 29.7634 87.5838 29.2244C87.8755 28.672 88.0213 28.0522 88.0213 27.365C88.0213 26.6779 87.8755 26.0649 87.5838 25.5259C87.3054 24.9869 86.921 24.5625 86.4304 24.2526C85.9398 23.9428 85.3765 23.7878 84.7401 23.7878C84.1171 23.7878 83.5536 23.9428 83.0498 24.2526C82.5593 24.5625 82.1683 24.9869 81.8766 25.5259C81.5982 26.0649 81.459 26.6779 81.459 27.365C81.459 28.0522 81.5982 28.672 81.8766 29.2244C82.1683 29.7634 82.5593 30.1878 83.0498 30.4977C83.5536 30.8075 84.1171 30.9625 84.7401 30.9625ZM92.5417 32.8421V21.9082H94.6893V24.0505L94.4308 23.7676C94.696 23.0804 95.1202 22.5616 95.7035 22.2114C96.2869 21.8476 96.963 21.6657 97.7318 21.6657C98.5273 21.6657 99.23 21.8409 99.8397 22.1911C100.45 22.5414 100.927 23.0265 101.271 23.6463C101.616 24.2661 101.789 24.9802 101.789 25.7886V32.8421H99.5613V26.3949C99.5613 25.8426 99.4619 25.3777 99.263 25.0004C99.0642 24.6097 98.7792 24.3133 98.4079 24.1111C98.05 23.8955 97.6391 23.7878 97.175 23.7878C96.7111 23.7878 96.2935 23.8955 95.9222 24.1111C95.5643 24.3133 95.2859 24.6097 95.087 25.0004C94.8882 25.3911 94.7888 25.8559 94.7888 26.3949V32.8421H92.5417ZM107.415 33.0846C106.686 33.0846 106.043 32.9567 105.486 32.7006C104.943 32.4312 104.518 32.0674 104.213 31.6093C103.908 31.1377 103.756 30.5852 103.756 29.952C103.756 29.3592 103.882 28.8269 104.134 28.3554C104.399 27.8838 104.803 27.4863 105.347 27.1629C105.89 26.8396 106.573 26.6106 107.395 26.4758L111.134 25.8493V27.648L107.833 28.2341C107.236 28.3418 106.798 28.5373 106.52 28.8202C106.242 29.0896 106.102 29.44 106.102 29.8711C106.102 30.2889 106.255 30.6325 106.56 30.9019C106.878 31.1579 107.282 31.2859 107.773 31.2859C108.383 31.2859 108.913 31.1511 109.364 30.8817C109.828 30.6122 110.186 30.2551 110.438 29.8105C110.689 29.3524 110.815 28.8471 110.815 28.2947V25.4855C110.815 24.9465 110.617 24.5087 110.219 24.1718C109.834 23.8215 109.317 23.6463 108.668 23.6463C108.071 23.6463 107.548 23.808 107.097 24.1314C106.659 24.4412 106.335 24.8454 106.122 25.344L104.253 24.3941C104.452 23.8551 104.777 23.3836 105.228 22.9794C105.678 22.5616 106.202 22.2383 106.798 22.0093C107.408 21.7802 108.051 21.6657 108.727 21.6657C109.576 21.6657 110.325 21.8274 110.974 22.1507C111.637 22.4741 112.148 22.9254 112.506 23.5048C112.877 24.0707 113.062 24.731 113.062 25.4855V32.8421H110.915V30.8615L111.372 30.9221C111.12 31.3667 110.796 31.7507 110.398 32.0741C110.013 32.3975 109.569 32.6467 109.065 32.8219C108.575 32.9971 108.025 33.0846 107.415 33.0846ZM115.69 32.8421V21.9082H117.838V24.1111L117.639 23.7878C117.877 23.0737 118.262 22.5616 118.792 22.2518C119.322 21.9284 119.959 21.7667 120.701 21.7667H121.357V23.8484H120.423C119.68 23.8484 119.077 24.0842 118.613 24.5558C118.162 25.0139 117.937 25.6741 117.937 26.5364V32.8421H115.69ZM127.866 33.0846C126.832 33.0846 125.903 32.8354 125.082 32.3368C124.273 31.8249 123.63 31.1377 123.153 30.2754C122.689 29.413 122.457 28.4429 122.457 27.365C122.457 26.2872 122.696 25.3171 123.173 24.4547C123.65 23.5924 124.293 22.912 125.102 22.4135C125.911 21.9149 126.826 21.6657 127.846 21.6657C128.707 21.6657 129.47 21.8409 130.133 22.1911C130.795 22.5414 131.32 23.0265 131.704 23.6463L131.366 24.1718V17.5427H133.593V32.8421H131.465V30.6189L131.724 31.0434C131.352 31.7036 130.823 32.2089 130.133 32.5591C129.443 32.9094 128.687 33.0846 127.866 33.0846ZM128.085 30.9625C128.707 30.9625 129.264 30.8075 129.755 30.4977C130.258 30.1878 130.65 29.7634 130.928 29.2244C131.22 28.672 131.366 28.0522 131.366 27.365C131.366 26.6779 131.22 26.0649 130.928 25.5259C130.65 24.9869 130.258 24.5625 129.755 24.2526C129.264 23.9428 128.707 23.7878 128.085 23.7878C127.462 23.7878 126.898 23.9428 126.394 24.2526C125.891 24.5625 125.5 24.9869 125.221 25.5259C124.943 26.0649 124.804 26.6779 124.804 27.365C124.804 28.0522 124.943 28.672 125.221 29.2244C125.5 29.7634 125.884 30.1878 126.374 30.4977C126.878 30.8075 127.448 30.9625 128.085 30.9625ZM141.407 33.0846C140.373 33.0846 139.424 32.8354 138.563 32.3368C137.714 31.8383 137.038 31.1579 136.535 30.2956C136.031 29.4332 135.779 28.4564 135.779 27.365C135.779 26.2602 136.031 25.2834 136.535 24.4345C137.038 23.5722 137.714 22.8985 138.563 22.4135C139.412 21.9149 140.359 21.6657 141.407 21.6657C142.467 21.6657 143.415 21.9149 144.25 22.4135C145.099 22.8985 145.768 23.5722 146.259 24.4345C146.762 25.2834 147.015 26.2602 147.015 27.365C147.015 28.4699 146.762 29.4534 146.259 30.3158C145.756 31.1781 145.079 31.8585 144.231 32.357C143.382 32.8421 142.441 33.0846 141.407 33.0846ZM141.407 30.9625C142.043 30.9625 142.606 30.8075 143.097 30.4977C143.588 30.1878 143.972 29.7634 144.25 29.2244C144.543 28.672 144.688 28.0522 144.688 27.365C144.688 26.6779 144.543 26.0649 144.25 25.5259C143.972 24.9869 143.588 24.5625 143.097 24.2526C142.606 23.9428 142.043 23.7878 141.407 23.7878C140.784 23.7878 140.22 23.9428 139.717 24.2526C139.226 24.5625 138.835 24.9869 138.543 25.5259C138.265 26.0649 138.126 26.6779 138.126 27.365C138.126 28.0522 138.265 28.672 138.543 29.2244C138.835 29.7634 139.226 30.1878 139.717 30.4977C140.22 30.8075 140.784 30.9625 141.407 30.9625ZM150.203 32.8421V30.2147H152.489V32.8421H150.203ZM155.009 32.8421L160.219 17.7853H163.122L168.332 32.8421H165.826L164.693 29.4669H158.668L157.514 32.8421H155.009ZM159.344 27.3448H163.977L161.352 19.4627H162.008L159.344 27.3448ZM169.871 32.8421V21.9082H172.118V32.8421H169.871ZM169.871 20.4126V17.7853H172.118V20.4126H169.871Z" fill="white"></path></svg> 