<svg width="24" height="24" viewBox="0 0 24 24" fill="none" xmlns="http://www.w3.org/2000/svg">
<rect width="24" height="24" rx="12" fill="#4A8DF6"/>
<path d="M17.0934 8.60666V15.9267C17.0934 16.2067 16.9001 16.4667 16.6201 16.5133C16.2668 16.5733 15.9601 16.3 15.9601 15.9533V6.90666C15.9601 6.28666 15.4534 5.77333 14.8268 5.77333H6.90677C6.28677 5.77333 5.77344 6.28 5.77344 6.90666V16.52C5.77344 17.4533 6.5401 18.22 7.47344 18.22H16.5268C17.4668 18.22 18.2268 17.46 18.2268 16.52V9.74C18.2201 9.11333 17.7134 8.60666 17.0934 8.60666ZM13.7001 15.1133H8.0401C7.72677 15.1133 7.47344 14.86 7.47344 14.5467C7.47344 14.2333 7.72677 13.98 8.0401 13.98H13.6934C14.0068 13.98 14.2601 14.2333 14.2601 14.5467C14.2601 14.86 14.0068 15.1133 13.7001 15.1133ZM13.7001 12.28H8.0401C7.72677 12.28 7.47344 12.0267 7.47344 11.7133C7.47344 11.4 7.72677 11.1467 8.0401 11.1467H13.6934C14.0068 11.1467 14.2601 11.4 14.2601 11.7133C14.2601 12.0267 14.0068 12.28 13.7001 12.28ZM13.7001 9.45333H8.0401C7.72677 9.45333 7.47344 9.2 7.47344 8.88666C7.47344 8.57333 7.72677 8.32 8.0401 8.32H13.6934C14.0068 8.32 14.2601 8.57333 14.2601 8.88666C14.2601 9.2 14.0068 9.45333 13.7001 9.45333Z" fill="white"/>
</svg>
