<svg width="24" height="24" viewBox="0 0 24 24" fill="none" xmlns="http://www.w3.org/2000/svg">
<rect width="24" height="24" rx="12" fill="#FEAB36"/>
<path d="M4.4917 12C4.4917 7.85833 7.85003 4.5 11.9917 4.5C16.1334 4.5 19.4917 7.85833 19.4917 12C19.4917 16.1417 16.1334 19.5 11.9917 19.5C7.85003 19.5 4.4917 16.1417 4.4917 12Z" fill="white"/>
<path d="M11.9998 17.4167C12.4601 17.4167 12.8332 17.0436 12.8332 16.5833C12.8332 16.1231 12.4601 15.75 11.9998 15.75C11.5396 15.75 11.1665 16.1231 11.1665 16.5833C11.1665 17.0436 11.5396 17.4167 11.9998 17.4167Z" fill="#FEAB36"/>
<path d="M11.9999 14.0833V13.6C11.9999 13.225 12.2249 12.8583 12.5832 12.75C13.6082 12.45 14.3082 11.375 14.0082 10.2C13.8249 9.49998 13.2499 8.92498 12.5499 8.74165C11.1582 8.38331 9.9082 9.41665 9.9082 10.75" stroke="#FEAB36" stroke-width="1.8" stroke-linecap="round" stroke-linejoin="round"/>
</svg>
